<svg id="Layer_1" data-name="Layer 1" xmlns="http://www.w3.org/2000/svg" viewBox="0 0 270.89 194.27"><defs><style>.cls-1,.cls-3,.cls-4{fill:#fff;}.cls-1{opacity:0.1;}.cls-2,.cls-6,.cls-7,.cls-8{fill:none;}.cls-2,.cls-6,.cls-7{stroke:#fff;}.cls-2,.cls-4,.cls-6,.cls-7,.cls-8{stroke-miterlimit:10;}.cls-2{stroke-width:0.8px;stroke-dasharray:3;}.cls-4,.cls-8{stroke:#de3068;}.cls-5{fill:#f63371;}.cls-6,.cls-7{stroke-width:0.5px;}.cls-7{stroke-dasharray:1.97 1.97;}</style></defs><title>allow_gps</title><g id="illustration"><g id="_Group_" data-name="&lt;Group&gt;"><path id="_Path_" data-name="&lt;Path&gt;" class="cls-1" d="M270.89,135.45a134.73,134.73,0,0,1-12.6,57.1H12.6a135.46,135.46,0,1,1,258.29-57.1Z"/><path id="_Path_2" data-name="&lt;Path&gt;" class="cls-1" d="M252.31,135.43a116.17,116.17,0,0,1-14.91,57.13H33.47a116.87,116.87,0,1,1,218.84-57.13Z"/><path id="_Path_3" data-name="&lt;Path&gt;" class="cls-1" d="M232.93,135.68a97.15,97.15,0,0,1-18.27,56.87H55.89a97.65,97.65,0,1,1,177-56.87Z"/><path id="_Path_4" data-name="&lt;Path&gt;" class="cls-1" d="M213.5,135.68A78,78,0,0,1,189,192.55H81.55A78.23,78.23,0,1,1,213.5,135.68Z"/><path id="_Path_5" data-name="&lt;Path&gt;" class="cls-1" d="M194,140.16c0,25.77-15.9,44.38-38.42,53.44H109.87c-22.53-9.06-38.43-27.67-38.43-53.44a61.29,61.29,0,0,1,122.57,0Z"/><circle id="_Path_6" data-name="&lt;Path&gt;" class="cls-1" cx="134.3" cy="143.44" r="44.95"/></g><g id="_Group_2" data-name="&lt;Group&gt;"><path id="_Path_7" data-name="&lt;Path&gt;" class="cls-2" d="M76.57,81.46,76.39,73a20.37,20.37,0,0,1,20.37-20.8h79.38c11.11,0,21.17,8.9,21.37,20h-1"/><line id="_Path_8" data-name="&lt;Path&gt;" class="cls-2" x1="136.95" y1="52.18" x2="136.95" y2="32.18"/><g id="_Group_3" data-name="&lt;Group&gt;"><path id="_Compound_Path_" data-name="&lt;Compound Path&gt;" class="cls-3" d="M145.46,28.77a17.5,17.5,0,0,1-.51,1.74,12.11,12.11,0,0,1-.84,1.78c-.51.86-1,1.72-1.63,2.53s-1.07,1.34-1.63,2c-.42.48-.85,1-1.31,1.39-.66.63-1.36,1.23-2,1.84a.81.81,0,0,1-1,0c-.27-.22-.55-.44-.81-.68-.66-.62-1.34-1.23-2-1.89s-1.26-1.42-1.86-2.15a19.47,19.47,0,0,1-2.51-4,9.62,9.62,0,0,1-.92-2.81,9.42,9.42,0,0,1-.09-1.8,8.11,8.11,0,0,1,1.1-3.76,12.48,12.48,0,0,1,1.09-1.51,7.88,7.88,0,0,1,2.75-2.08,7,7,0,0,1,2.41-.71,14.7,14.7,0,0,1,2-.08,7.77,7.77,0,0,1,2.65.64,8.57,8.57,0,0,1,1.88,1.09,8.75,8.75,0,0,1,1.5,1.45,8.66,8.66,0,0,1,1.15,1.85,8,8,0,0,1,.67,2.26c0,.15.06.29.08.44v1.75C145.55,28.3,145.52,28.54,145.46,28.77ZM132.8,27.48A4.17,4.17,0,1,0,137,23.14,4.13,4.13,0,0,0,132.8,27.48Z"/><circle id="_Path_9" data-name="&lt;Path&gt;" class="cls-1" cx="136.97" cy="27.39" r="6.01"/></g></g><g id="_Group_4" data-name="&lt;Group&gt;"><circle id="_Path_10" data-name="&lt;Path&gt;" class="cls-4" cx="77.47" cy="108.48" r="28"/><path id="_Path_11" data-name="&lt;Path&gt;" class="cls-3" d="M59.73,143.39s10.23.86,8.13-8.94a29.64,29.64,0,0,0,20.8,0s-1.94,8.78,6.22,9.22l4.48,28.81-39.63-4.25Z"/><path id="_Path_12" data-name="&lt;Path&gt;" class="cls-5" d="M35.14,165.89a25.77,25.77,0,0,1,1.76-9.62,16.22,16.22,0,0,1,.76-1.64,19.64,19.64,0,0,1,14.28-10.45c2.56-.47,5.19-.54,7.79-.79C60.4,155,69.35,162,78.9,161.19c7.16-.59,15.51-6.51,16-17.51a24.93,24.93,0,0,1,11.42,1.44,20.59,20.59,0,0,1,12.44,13.5c.1.31.18.62.26.94a28.63,28.63,0,0,1,.79,7V187c-.09.14,0,4.7,0,4.84-.47,3.27-3.67,1.22-6.62,1.22q-35.76,0-71.53,0a13.16,13.16,0,0,1-2.5-.22c-2.46-.58-3.64,3.14-4-3.05Z"/><path id="_Path_13" data-name="&lt;Path&gt;" class="cls-5" d="M83.11,140.33c11.35-3.68,15.67-15.32,15.16-27.48-12,3.47-26.79-5-31.63-14.79-4.52,1.75-9.14,8.43-10.06,14.59A21.35,21.35,0,0,0,73.1,136.34c-9.91-.74-21.72-9.78-23.65-23.12C46.88,95.46,59.13,82.72,72.83,80.7c17.52-2.59,30.23,9.58,32.36,22.93C108.14,122.16,96,138.65,83.11,140.33Z"/></g><path id="_Path_14" data-name="&lt;Path&gt;" class="cls-5" d="M71,124.73H83.11a5,5,0,0,1-5,5H75.95a5,5,0,0,1-5-5Z"/><path id="_Path_15" data-name="&lt;Path&gt;" class="cls-3" d="M72.51,128.17a5.44,5.44,0,0,1,3.94-1,6.78,6.78,0,0,1,4.47,1.3,6.5,6.5,0,0,1-3.45,1.12,9.84,9.84,0,0,1-3.61-.58,3.59,3.59,0,0,1-1.42-.78"/><g id="_Group_5" data-name="&lt;Group&gt;"><g id="_Group_6" data-name="&lt;Group&gt;"><path id="_Path_16" data-name="&lt;Path&gt;" class="cls-5" d="M64,113c0-.07,0-.17.1-.22a6.8,6.8,0,0,1,4.23-1.06,5.27,5.27,0,0,1,1.6.23,3.22,3.22,0,0,1,1.3.84,1.17,1.17,0,0,1,.34.6.53.53,0,0,1-.29.58c-.28.1-.56-.12-.79-.3a5.34,5.34,0,0,0-5.25-.73,3.38,3.38,0,0,1-1.3.4,1.28,1.28,0,0,1,.06-.64"/></g><g id="_Group_7" data-name="&lt;Group&gt;"><path id="_Path_17" data-name="&lt;Path&gt;" class="cls-5" d="M88.52,113.53c0-.07,0-.17-.1-.22a6.8,6.8,0,0,0-4.23-1.06,5.27,5.27,0,0,0-1.6.23,3.22,3.22,0,0,0-1.3.84,1.17,1.17,0,0,0-.34.6.53.53,0,0,0,.29.58c.28.1.56-.12.79-.3a5.34,5.34,0,0,1,5.25-.73,3.38,3.38,0,0,0,1.3.4,1.28,1.28,0,0,0-.06-.64"/></g></g><path id="_Path_18" data-name="&lt;Path&gt;" class="cls-5" d="M74.59,118.62a2,2,0,0,0,.87.93,2.89,2.89,0,0,0,1.29.29,2,2,0,0,0,2-1.19.31.31,0,0,1,.14-.14.2.2,0,0,1,.24.14.47.47,0,0,1,0,.3,2.54,2.54,0,0,1-2.24,1.52,2.66,2.66,0,0,1-1.62-.28,1.5,1.5,0,0,1-.77-1.38"/><g id="_Group_8" data-name="&lt;Group&gt;"><g id="_Group_9" data-name="&lt;Group&gt;"><line id="_Path_19" data-name="&lt;Path&gt;" class="cls-6" x1="77.24" y1="161.19" x2="77.25" y2="162.19"/><line id="_Path_20" data-name="&lt;Path&gt;" class="cls-7" x1="77.28" y1="164.16" x2="77.64" y2="190.72"/><line id="_Path_21" data-name="&lt;Path&gt;" class="cls-6" x1="77.66" y1="191.71" x2="77.67" y2="192.71"/></g></g><circle id="_Path_22" data-name="&lt;Path&gt;" class="cls-3" cx="80.61" cy="169.62" r="1.11"/><circle id="_Path_23" data-name="&lt;Path&gt;" class="cls-3" cx="80.61" cy="179.61" r="1.11"/><circle id="_Path_24" data-name="&lt;Path&gt;" class="cls-3" cx="80.95" cy="189.93" r="1.11"/><g id="_Group_10" data-name="&lt;Group&gt;"><path id="_Path_25" data-name="&lt;Path&gt;" class="cls-5" d="M154,193.89s-22.5-65.36,36.22-63.51a77.79,77.79,0,0,0,10.55-.35c14.11-1.48,53.78-.27,37.67,63.87Z"/><path id="_Path_26" data-name="&lt;Path&gt;" class="cls-3" d="M205.53,152.34l4.7,41.55h-24.7l3.89-41.7c.1-1.06-.4-3.79-1.3-4.36h0c-.5-.27.47.35,0,0l-14.95-15.66c23.59-17,41.49-1.44,41.49-1.44l-6.34,14.89A7.49,7.49,0,0,0,205.53,152.34Z"/><g id="_Group_11" data-name="&lt;Group&gt;"><path id="_Path_27" data-name="&lt;Path&gt;" class="cls-4" d="M210.31,137.42c-8.44,10.53-24.77,10.31-32.66-.64-9.18-12.74-6.11-28.65-6.11-28.65a23.83,23.83,0,1,1,47.66,0C219.93,121.41,215.52,130.92,210.31,137.42Z"/></g><path id="_Path_28" data-name="&lt;Path&gt;" class="cls-5" d="M171.07,113.22s29.5,8.28,31.21-19c0,0-2.55,21.61,16.61,22.87,0,0,7.24-31.39-23.51-32.81C195.37,84.3,170.53,82.8,171.07,113.22Z"/><ellipse id="_Path_29" data-name="&lt;Path&gt;" class="cls-5" cx="197.92" cy="83.16" rx="13.44" ry="11.07"/><g id="_Group_12" data-name="&lt;Group&gt;"><path id="_Path_30" data-name="&lt;Path&gt;" class="cls-5" d="M182.61,122.38c0-.08,0-.17.1-.22a7,7,0,0,1,4.32-1.08,5.39,5.39,0,0,1,1.63.24,3.29,3.29,0,0,1,1.33.86,1.2,1.2,0,0,1,.35.62.54.54,0,0,1-.3.59c-.28.1-.57-.12-.81-.31a5.46,5.46,0,0,0-5.37-.75,3.45,3.45,0,0,1-1.32.41,1.31,1.31,0,0,1,.06-.65"/><path id="_Path_31" data-name="&lt;Path&gt;" class="cls-5" d="M207.72,122.87c0-.08,0-.17-.1-.22a7,7,0,0,0-4.32-1.08,5.39,5.39,0,0,0-1.63.24,3.29,3.29,0,0,0-1.33.86,1.2,1.2,0,0,0-.35.62.54.54,0,0,0,.3.59c.28.1.57-.12.81-.31a5.46,5.46,0,0,1,5.37-.75,3.45,3.45,0,0,0,1.32.41,1.31,1.31,0,0,0-.06-.65"/></g><path id="_Path_32" data-name="&lt;Path&gt;" class="cls-5" d="M192.86,128.82a2,2,0,0,0,.89,1,3,3,0,0,0,1.32.3,2.09,2.09,0,0,0,2.09-1.22.31.31,0,0,1,.14-.15.2.2,0,0,1,.24.14.49.49,0,0,1,0,.3,2.6,2.6,0,0,1-2.29,1.55,2.72,2.72,0,0,1-1.66-.29,1.53,1.53,0,0,1-.79-1.41"/><g id="_Group_13" data-name="&lt;Group&gt;"><circle id="_Path_33" data-name="&lt;Path&gt;" class="cls-8" cx="184.29" cy="123.4" r="7.5"/><circle id="_Path_34" data-name="&lt;Path&gt;" class="cls-8" cx="206.05" cy="123.4" r="7.5"/><path id="_Path_35" data-name="&lt;Path&gt;" class="cls-8" d="M191.78,121s2.91-5.39,6.76,0"/></g><line id="_Path_36" data-name="&lt;Path&gt;" class="cls-8" x1="213.55" y1="123.4" x2="218.67" y2="119.43"/><line id="_Path_37" data-name="&lt;Path&gt;" class="cls-8" x1="176.79" y1="123.4" x2="171.05" y2="119.67"/><path id="_Path_38" data-name="&lt;Path&gt;" class="cls-5" d="M190.07,133.51a9.42,9.42,0,0,0,9.91-.62,4.08,4.08,0,0,1-1.83,3.1,6.07,6.07,0,0,1-3.55.95,4.37,4.37,0,0,1-1.35-.21c-1.35-.47-2.16-1.81-2.87-3.05"/></g><rect id="_Rectangle_" data-name="&lt;Rectangle&gt;" class="cls-5" x="10.28" y="192.59" width="250" height="1.68"/></g></svg>