<svg id="Layer_1" data-name="Layer 1" xmlns="http://www.w3.org/2000/svg" viewBox="0 0 277 200.21"><defs><style>.cls-1,.cls-2,.cls-5,.cls-7{fill:#fff;}.cls-1{opacity:0.1;}.cls-3,.cls-8,.cls-9{fill:none;}.cls-3{stroke:#592b5f;}.cls-3,.cls-5,.cls-7,.cls-8,.cls-9{stroke-miterlimit:10;}.cls-4,.cls-6{fill:#592b5f;}.cls-5{stroke:#55285b;}.cls-6{font-size:9.46px;font-family:Titillium-Bold, Titillium Bold;font-weight:700;}.cls-7{stroke:#5a2d5e;}.cls-8,.cls-9{stroke:#fff;stroke-width:0.5px;}.cls-9{stroke-dasharray:1.97 1.97;}</style></defs><title>allow-notification-caregiver</title><g id="_Group_" data-name="&lt;Group&gt;"><path id="_Path_" data-name="&lt;Path&gt;" class="cls-1" d="M271.07,141.24a134.73,134.73,0,0,1-12.6,57.1H12.78a135.46,135.46,0,1,1,258.29-57.1Z"/><path id="_Path_2" data-name="&lt;Path&gt;" class="cls-1" d="M252.49,141.22a116.17,116.17,0,0,1-14.91,57.13H33.65a116.87,116.87,0,1,1,218.84-57.13Z"/><path id="_Path_3" data-name="&lt;Path&gt;" class="cls-1" d="M233.11,141.47a97.15,97.15,0,0,1-18.27,56.87H56.07a97.65,97.65,0,1,1,177-56.87Z"/><path id="_Path_4" data-name="&lt;Path&gt;" class="cls-1" d="M213.68,141.47a78,78,0,0,1-24.51,56.87H81.73a78.23,78.23,0,1,1,131.95-56.87Z"/><path id="_Path_5" data-name="&lt;Path&gt;" class="cls-1" d="M194.19,145.95c0,25.77-15.9,44.38-38.42,53.44H110c-22.53-9.06-38.43-27.67-38.43-53.44a61.29,61.29,0,0,1,122.57,0Z"/><circle id="_Path_6" data-name="&lt;Path&gt;" class="cls-1" cx="134.47" cy="151.24" r="44.95"/></g><g id="_Group_2" data-name="&lt;Group&gt;"><path id="_Path_7" data-name="&lt;Path&gt;" class="cls-2" d="M92.54,78.19c2-.53,3.8-1.32,4.75-3.33.3-.63.5-1.31.76-2a1.36,1.36,0,0,1,.23-.3,1.33,1.33,0,0,1,.26.3c.22.53.45,1.07.64,1.61a5,5,0,0,0,3.16,3.1c.47.18.95.33,1.41.52.11,0,.19.17.29.26-.1.1-.17.25-.29.3-.49.21-1,.39-1.49.57A5.12,5.12,0,0,0,99,82.75c-.12.38-.25.75-.41,1.11-.05.12-.19.21-.3.31-.1-.11-.24-.19-.29-.32-.28-.69-.5-1.41-.82-2.08A5.35,5.35,0,0,0,93.73,79c-.4-.13-.79-.31-1.19-.46Z"/><path id="_Path_8" data-name="&lt;Path&gt;" class="cls-2" d="M103.71,89.9a4,4,0,0,0-3.41,3.41l-.13,0a2.94,2.94,0,0,1-.25-.39c-.1-.23-.18-.48-.27-.72a3.14,3.14,0,0,0-2.26-2,6.3,6.3,0,0,1-.86-.4c.5-.21.86-.38,1.24-.51a3,3,0,0,0,1.92-2c.08-.24.17-.49.27-.72a1,1,0,0,1,.2-.22c.08.08.19.14.23.23.15.35.27.71.42,1.06a3,3,0,0,0,1.94,1.7c.33.11.64.27,1,.4Z"/><path id="_Path_9" data-name="&lt;Path&gt;" class="cls-2" d="M106.82,84.17A3.22,3.22,0,0,0,109.64,87a9.08,9.08,0,0,0-1.86,1.1,8.3,8.3,0,0,0-1.07,1.74c-.06-.09-.21-.21-.25-.36a2.91,2.91,0,0,0-2.24-2.19,2.54,2.54,0,0,1-.33-.16,8.37,8.37,0,0,0,1.79-1.06A9.12,9.12,0,0,0,106.82,84.17Z"/></g><g id="_Group_3" data-name="&lt;Group&gt;"><path id="_Path_10" data-name="&lt;Path&gt;" class="cls-2" d="M97.48,115,89,121.38v9.47a4.94,4.94,0,0,1-4.94,4.95H52.33a4.94,4.94,0,0,1-4.94-4.95V99.14a4.93,4.93,0,0,1,4.94-4.94H84.05A4.93,4.93,0,0,1,89,99.14v9.8Z"/><rect id="_Rectangle_" data-name="&lt;Rectangle&gt;" class="cls-3" x="50.66" y="96.18" width="35.63" height="36.78" rx="4.04" ry="4.04"/></g><g id="_Group_4" data-name="&lt;Group&gt;"><g id="_Group_5" data-name="&lt;Group&gt;"><path id="_Path_11" data-name="&lt;Path&gt;" class="cls-4" d="M65.05,107h.54c.78.32,1.38.78,1.26,1.73-.06.45.16.6.52.71A6.54,6.54,0,0,1,72,115.82q0,1.69,0,3.39a5.85,5.85,0,0,0,.07,2.1,4.53,4.53,0,0,0,1.45,1.52c.58.46.5,1,.43,1.63H56.64v-1.18c.12-.11.25-.21.37-.32.54-.54,1.28-1,1.56-1.66a6.74,6.74,0,0,0,.07-2.23,27.61,27.61,0,0,1,.18-4.89,6.49,6.49,0,0,1,4.69-4.83c.22-.06.29-.19.29-.42a3,3,0,0,1,.09-.92A1.64,1.64,0,0,1,65.05,107Z"/><path id="_Path_12" data-name="&lt;Path&gt;" class="cls-4" d="M64.87,127.53A2.19,2.19,0,0,1,63.3,126a4.71,4.71,0,0,1-.08-.63h4.14c.12.94-.43,1.67-1.59,2.15Z"/></g><g id="_Group_6" data-name="&lt;Group&gt;"><circle id="_Path_13" data-name="&lt;Path&gt;" class="cls-5" cx="74.01" cy="109.66" r="6.48"/><text class="cls-6" transform="translate(71.59 113.06)">7</text></g></g><g id="_Group_7" data-name="&lt;Group&gt;"><path id="_Path_14" data-name="&lt;Path&gt;" class="cls-2" d="M100.19,52.21c2.69-.71,5.14-1.78,6.41-4.49.4-.85.68-1.76,1-2.64a1.83,1.83,0,0,1,.31-.4,1.79,1.79,0,0,1,.34.41c.3.72.6,1.44.86,2.17a6.81,6.81,0,0,0,4.27,4.18c.63.24,1.28.45,1.91.7.15.06.26.23.39.35-.13.14-.24.34-.4.41-.66.28-1.34.53-2,.76a6.91,6.91,0,0,0-4.4,4.69c-.17.51-.34,1-.55,1.5-.07.17-.26.28-.4.42-.13-.14-.32-.26-.39-.43-.38-.93-.67-1.9-1.1-2.81a7.23,7.23,0,0,0-4.65-3.7c-.54-.18-1.07-.42-1.6-.63Z"/><path id="_Path_15" data-name="&lt;Path&gt;" class="cls-2" d="M115.28,68a5.33,5.33,0,0,0-4.61,4.6l-.18,0a4,4,0,0,1-.34-.52c-.14-.32-.25-.65-.37-1a4.25,4.25,0,0,0-3.05-2.72,8.5,8.5,0,0,1-1.17-.54c.68-.28,1.17-.51,1.67-.69a4.08,4.08,0,0,0,2.59-2.64c.11-.33.23-.66.37-1a1.31,1.31,0,0,1,.27-.3c.11.1.26.19.32.31.21.47.37,1,.57,1.43A4,4,0,0,0,114,67.24c.44.15.86.36,1.29.55Z"/><path id="_Path_16" data-name="&lt;Path&gt;" class="cls-2" d="M119.47,60.28a4.34,4.34,0,0,0,3.81,3.79,12.26,12.26,0,0,0-2.51,1.48,11.21,11.21,0,0,0-1.45,2.35c-.08-.11-.29-.29-.33-.49a3.92,3.92,0,0,0-3-3,3.42,3.42,0,0,1-.45-.21,11.3,11.3,0,0,0,2.42-1.43A12.31,12.31,0,0,0,119.47,60.28Z"/></g><g id="_Group_8" data-name="&lt;Group&gt;"><circle id="_Path_17" data-name="&lt;Path&gt;" class="cls-7" cx="132.52" cy="114.97" r="28"/><path id="_Path_18" data-name="&lt;Path&gt;" class="cls-2" d="M114.78,149.88s10.23.86,8.13-8.94a29.64,29.64,0,0,0,20.8,0s-1.94,8.78,6.22,9.22L154.41,179l-39.63-4.25Z"/><path id="_Path_19" data-name="&lt;Path&gt;" class="cls-4" d="M90.19,172.38A25.77,25.77,0,0,1,92,162.76a16.22,16.22,0,0,1,.76-1.64A19.64,19.64,0,0,1,107,150.67c2.56-.47,5.19-.54,7.79-.79.67,11.62,9.62,18.59,19.17,17.8,7.16-.59,15.51-6.51,16-17.51a24.93,24.93,0,0,1,11.42,1.44,20.59,20.59,0,0,1,12.44,13.5c.1.31.18.62.26.94a28.63,28.63,0,0,1,.79,7v20.49c-.09.14,0,4.7,0,4.84-.47,3.27-3.67,1.22-6.62,1.22q-35.76,0-71.53,0a13.16,13.16,0,0,1-2.5-.22c-2.46-.58-3.64,3.14-4-3.05Z"/><path id="_Path_20" data-name="&lt;Path&gt;" class="cls-4" d="M138.16,146.82c11.35-3.68,15.67-15.32,15.16-27.48-12,3.47-26.79-5-31.63-14.79-4.52,1.75-9.14,8.43-10.06,14.59a21.35,21.35,0,0,0,16.52,23.68c-9.91-.74-21.72-9.78-23.65-23.12-2.57-17.76,9.69-30.49,23.38-32.51,17.52-2.59,30.23,9.58,32.36,22.93C163.19,128.64,151.06,145.13,138.16,146.82Z"/></g><path id="_Path_21" data-name="&lt;Path&gt;" class="cls-4" d="M126,131.22h12.14a5,5,0,0,1-5,5H131a5,5,0,0,1-5-5Z"/><path id="_Path_22" data-name="&lt;Path&gt;" class="cls-2" d="M127.56,134.66a5.44,5.44,0,0,1,3.94-1,6.78,6.78,0,0,1,4.47,1.3,6.5,6.5,0,0,1-3.45,1.12,9.84,9.84,0,0,1-3.61-.58,3.59,3.59,0,0,1-1.42-.78"/><g id="_Group_9" data-name="&lt;Group&gt;"><path id="_Path_23" data-name="&lt;Path&gt;" class="cls-4" d="M119,119.53c0-.07,0-.17.1-.22a6.8,6.8,0,0,1,4.23-1.06,5.27,5.27,0,0,1,1.6.23,3.22,3.22,0,0,1,1.3.84,1.17,1.17,0,0,1,.34.6.53.53,0,0,1-.29.58c-.28.1-.56-.12-.79-.3a5.34,5.34,0,0,0-5.25-.73,3.38,3.38,0,0,1-1.3.4,1.28,1.28,0,0,1,.06-.64"/><path id="_Path_24" data-name="&lt;Path&gt;" class="cls-4" d="M143.57,120c0-.07,0-.17-.1-.22a6.8,6.8,0,0,0-4.23-1.06,5.27,5.27,0,0,0-1.6.23,3.22,3.22,0,0,0-1.3.84,1.17,1.17,0,0,0-.34.6.53.53,0,0,0,.29.58c.28.1.56-.12.79-.3a5.34,5.34,0,0,1,5.25-.73,3.38,3.38,0,0,0,1.3.4,1.28,1.28,0,0,0-.06-.64"/></g><path id="_Path_25" data-name="&lt;Path&gt;" class="cls-4" d="M129.64,125.11a2,2,0,0,0,.87.93,2.89,2.89,0,0,0,1.29.29,2,2,0,0,0,2-1.19A.31.31,0,0,1,134,125a.2.2,0,0,1,.24.14.47.47,0,0,1,0,.3,2.54,2.54,0,0,1-2.24,1.52,2.66,2.66,0,0,1-1.62-.28,1.5,1.5,0,0,1-.77-1.38"/><g id="_Group_10" data-name="&lt;Group&gt;"><g id="_Group_11" data-name="&lt;Group&gt;"><line id="_Path_26" data-name="&lt;Path&gt;" class="cls-8" x1="132.29" y1="167.67" x2="132.3" y2="168.67"/><line id="_Path_27" data-name="&lt;Path&gt;" class="cls-9" x1="132.33" y1="170.64" x2="132.69" y2="197.21"/><line id="_Path_28" data-name="&lt;Path&gt;" class="cls-8" x1="132.71" y1="198.19" x2="132.72" y2="199.19"/></g></g><circle id="_Path_29" data-name="&lt;Path&gt;" class="cls-2" cx="135.66" cy="176.1" r="1.11"/><circle id="_Path_30" data-name="&lt;Path&gt;" class="cls-2" cx="135.66" cy="186.1" r="1.11"/><circle id="_Path_31" data-name="&lt;Path&gt;" class="cls-2" cx="136" cy="196.41" r="1.11"/></svg>