<svg id="Layer_1" data-name="Layer 1" xmlns="http://www.w3.org/2000/svg" viewBox="0 0 270.89 194.27"><defs><style>.cls-1,.cls-2,.cls-5{fill:#fff;}.cls-1{opacity:0.1;}.cls-3,.cls-8,.cls-9{fill:none;}.cls-3{stroke:#592b5f;}.cls-3,.cls-5,.cls-8,.cls-9{stroke-miterlimit:10;}.cls-4,.cls-6{fill:#592b5f;}.cls-5,.cls-8,.cls-9{stroke:#55285b;}.cls-6{font-size:9.23px;font-family:Titillium-Bold, Titillium Bold;font-weight:700;}.cls-7{fill:#512657;}.cls-9{stroke-width:0.7px;}.cls-10{fill:#c486c0;}</style></defs><title>allow_notification</title><g id="illustration"><g id="_Group_" data-name="&lt;Group&gt;"><path id="_Path_" data-name="&lt;Path&gt;" class="cls-1" d="M267.95,138.34a131.5,131.5,0,0,1-12.3,55.73H15.86a132.2,132.2,0,1,1,252.09-55.73Z"/><path id="_Path_2" data-name="&lt;Path&gt;" class="cls-1" d="M249.82,138.32a113.38,113.38,0,0,1-14.55,55.75h-199a114.07,114.07,0,1,1,213.58-55.75Z"/><path id="_Path_3" data-name="&lt;Path&gt;" class="cls-1" d="M230.9,138.57a94.82,94.82,0,0,1-17.83,55.51h-155A95.31,95.31,0,1,1,230.9,138.57Z"/><path id="_Path_4" data-name="&lt;Path&gt;" class="cls-1" d="M211.94,138.57A76.15,76.15,0,0,1,188,194.07H83.16a76.35,76.35,0,1,1,128.78-55.51Z"/><path id="_Path_5" data-name="&lt;Path&gt;" class="cls-1" d="M192.91,142.93c0,25.15-15.52,43.32-37.5,52.16H110.79c-22-8.84-37.51-27-37.51-52.16a59.82,59.82,0,0,1,119.63,0Z"/><circle id="_Path_6" data-name="&lt;Path&gt;" class="cls-1" cx="134.63" cy="148.09" r="43.87"/></g><g id="_Group_2" data-name="&lt;Group&gt;"><path id="_Path_7" data-name="&lt;Path&gt;" class="cls-2" d="M93.7,76.81c1.94-.51,3.71-1.29,4.63-3.25.29-.62.49-1.27.74-1.91a1.33,1.33,0,0,1,.22-.29,1.29,1.29,0,0,1,.25.29c.22.52.43,1,.62,1.57a4.92,4.92,0,0,0,3.09,3c.46.18.92.33,1.38.51.11,0,.19.17.28.25-.09.1-.17.25-.29.3-.48.2-1,.38-1.46.55A5,5,0,0,0,100,81.25c-.12.37-.25.73-.4,1.09-.05.12-.19.2-.29.3-.1-.1-.23-.19-.28-.31-.27-.67-.49-1.37-.8-2a5.22,5.22,0,0,0-3.36-2.68c-.39-.13-.77-.3-1.16-.45Z"/><path id="_Path_8" data-name="&lt;Path&gt;" class="cls-2" d="M104.61,88.23a3.85,3.85,0,0,0-3.33,3.33l-.13,0a2.87,2.87,0,0,1-.24-.38c-.1-.23-.18-.47-.27-.7a3.07,3.07,0,0,0-2.21-2,6.15,6.15,0,0,1-.84-.39c.49-.21.84-.37,1.21-.5a3,3,0,0,0,1.87-1.91c.08-.24.17-.48.27-.71a1,1,0,0,1,.19-.22c.08.07.19.13.23.23.15.34.26.69.41,1a2.92,2.92,0,0,0,1.89,1.66c.32.11.62.26.93.39Z"/><path id="_Path_9" data-name="&lt;Path&gt;" class="cls-2" d="M107.64,82.64a3.14,3.14,0,0,0,2.75,2.74,8.86,8.86,0,0,0-1.82,1.07,8.1,8.1,0,0,0-1,1.7c-.06-.08-.21-.21-.24-.36a2.84,2.84,0,0,0-2.18-2.14,2.48,2.48,0,0,1-.32-.15,8.17,8.17,0,0,0,1.75-1A8.9,8.9,0,0,0,107.64,82.64Z"/></g><g id="_Group_3" data-name="&lt;Group&gt;"><path id="_Path_10" data-name="&lt;Path&gt;" class="cls-2" d="M98.53,112.73,90.24,119v9.24A4.82,4.82,0,0,1,85.42,133h-31a4.82,4.82,0,0,1-4.82-4.83v-31a4.82,4.82,0,0,1,4.82-4.82h31a4.82,4.82,0,0,1,4.82,4.82v9.56Z"/><rect id="_Rectangle_" data-name="&lt;Rectangle&gt;" class="cls-3" x="52.83" y="94.36" width="34.78" height="35.89" rx="4.04" ry="4.04"/></g><g id="_Group_4" data-name="&lt;Group&gt;"><g id="_Group_5" data-name="&lt;Group&gt;"><path id="_Path_11" data-name="&lt;Path&gt;" class="cls-4" d="M66.88,104.91h.53c.76.31,1.35.76,1.23,1.69-.06.44.16.58.51.69a6.38,6.38,0,0,1,4.53,6.24q0,1.65,0,3.31a5.71,5.71,0,0,0,.07,2,4.42,4.42,0,0,0,1.42,1.48c.56.45.49,1,.42,1.59H58.66V120.8c.12-.11.25-.2.36-.32.53-.53,1.25-1,1.52-1.62a6.58,6.58,0,0,0,.07-2.18,27,27,0,0,1,.17-4.77,6.33,6.33,0,0,1,4.58-4.71c.22-.05.29-.18.29-.41a3,3,0,0,1,.09-.9A1.61,1.61,0,0,1,66.88,104.91Z"/><path id="_Path_12" data-name="&lt;Path&gt;" class="cls-4" d="M66.7,125a2.13,2.13,0,0,1-1.53-1.49,4.6,4.6,0,0,1-.08-.61h4c.12.92-.42,1.63-1.55,2.1Z"/></g><g id="_Group_6" data-name="&lt;Group&gt;"><circle id="_Path_13" data-name="&lt;Path&gt;" class="cls-5" cx="75.62" cy="107.52" r="6.33"/><text class="cls-6" transform="translate(73.26 110.84)">7</text></g></g><g id="_Group_7" data-name="&lt;Group&gt;"><path id="_Path_14" data-name="&lt;Path&gt;" class="cls-2" d="M101.18,51.45c2.62-.69,5-1.74,6.25-4.38.39-.83.66-1.72,1-2.58a1.79,1.79,0,0,1,.3-.39,1.75,1.75,0,0,1,.34.4c.3.7.59,1.4.84,2.12a6.65,6.65,0,0,0,4.17,4.08c.62.24,1.25.44,1.86.69.15.06.26.23.38.34-.13.14-.23.33-.39.4-.65.27-1.3.52-2,.75a6.74,6.74,0,0,0-4.3,4.58c-.16.49-.33,1-.54,1.47-.07.16-.26.27-.39.41-.13-.14-.31-.26-.38-.42-.37-.91-.66-1.86-1.08-2.74a7.05,7.05,0,0,0-4.54-3.61c-.53-.17-1-.41-1.56-.61Z"/><path id="_Path_15" data-name="&lt;Path&gt;" class="cls-2" d="M115.9,66.87a5.2,5.2,0,0,0-4.5,4.49l-.17,0a3.87,3.87,0,0,1-.33-.51c-.14-.31-.24-.63-.36-1a4.14,4.14,0,0,0-3-2.65,8.3,8.3,0,0,1-1.14-.52c.66-.28,1.14-.5,1.63-.68a4,4,0,0,0,2.52-2.58c.11-.32.22-.64.36-1a1.28,1.28,0,0,1,.26-.29c.11.1.26.18.31.31.2.46.36.93.55,1.39a3.94,3.94,0,0,0,2.55,2.24c.43.14.84.35,1.26.53Z"/><path id="_Path_16" data-name="&lt;Path&gt;" class="cls-2" d="M120,59.33A4.24,4.24,0,0,0,123.7,63a12,12,0,0,0-2.45,1.45,10.94,10.94,0,0,0-1.41,2.29c-.08-.11-.28-.28-.33-.48a3.83,3.83,0,0,0-2.95-2.89,3.34,3.34,0,0,1-.44-.21,11,11,0,0,0,2.36-1.39A12,12,0,0,0,120,59.33Z"/></g><g id="_Group_8" data-name="&lt;Group&gt;"><path id="_Path_17" data-name="&lt;Path&gt;" class="cls-4" d="M176,188c-.09.14,0,4.82,0,5-.48,3.35-3.76,2.23-6.79,2.22q-36.68,0-73.37,0a13.29,13.29,0,0,1-2.55-.23c-2.53-.59-3.73,2.24-4.08-4.1V166.31A26.35,26.35,0,0,1,91,156.44a16.58,16.58,0,0,1,.77-1.68A20.17,20.17,0,0,1,106.37,144c2.63-.48,5.32-.55,8-.81l3-1.63,31,.61,2.1,1.3A25.68,25.68,0,0,1,162.13,145a21.14,21.14,0,0,1,12.76,13.85c.1.32.19.65.27,1A29,29,0,0,1,176,167Z"/></g><g id="_Group_9" data-name="&lt;Group&gt;"><path id="_Path_18" data-name="&lt;Path&gt;" class="cls-5" d="M148.45,142.2c-8,10-23.56,9.81-31.05-.61-8.73-12.11-5.81-27.24-5.81-27.24a22.66,22.66,0,1,1,45.31,0C157.59,127,153.4,136,148.45,142.2Z"/></g><path id="_Path_19" data-name="&lt;Path&gt;" class="cls-7" d="M130.8,126.4a1.77,1.77,0,0,0,.78.84,2.58,2.58,0,0,0,1.16.26,1.83,1.83,0,0,0,1.83-1.07.27.27,0,0,1,.12-.13.18.18,0,0,1,.21.12.42.42,0,0,1,0,.27,2.28,2.28,0,0,1-2,1.36,2.38,2.38,0,0,1-1.45-.25,1.34,1.34,0,0,1-.69-1.24"/><g id="_Group_10" data-name="&lt;Group&gt;"><circle id="_Path_20" data-name="&lt;Path&gt;" class="cls-8" cx="123.3" cy="121.66" r="6.56"/><circle id="_Path_21" data-name="&lt;Path&gt;" class="cls-8" cx="142.34" cy="121.66" r="6.56"/><path id="_Path_22" data-name="&lt;Path&gt;" class="cls-8" d="M129.86,119.54s2.55-4.72,5.92,0"/></g><line id="_Path_23" data-name="&lt;Path&gt;" class="cls-8" x1="148.9" y1="121.66" x2="153.39" y2="118.18"/><line id="_Path_24" data-name="&lt;Path&gt;" class="cls-8" x1="116.74" y1="121.66" x2="111.72" y2="118.39"/><path id="_Path_25" data-name="&lt;Path&gt;" class="cls-4" d="M147.68,90.87c-1.72-1-4.09-.24-5.37,1.31a9.88,9.88,0,0,0-1.83,5.64,9.24,9.24,0,0,0,.62,4.77A4,4,0,0,0,145,105c.64-.09,1.37-.36,1.89,0a1.54,1.54,0,0,1,.48,1.1c.24,2.24-.54,5.2,1.46,6.24.77.4,1.8.34,2.39,1a3.78,3.78,0,0,1,.6,2,5.07,5.07,0,0,0,9.89.43,3.52,3.52,0,0,0-.5-3.09,2.2,2.2,0,0,0-2.89-.51,10.37,10.37,0,0,0,.28-12,3.15,3.15,0,0,1-.89-2.11c.06-.4.3-.76.38-1.16.19-1.05-.77-1.94-1.67-2.51a20.84,20.84,0,0,0-11.09-3.24"/><path id="_Path_26" data-name="&lt;Path&gt;" class="cls-4" d="M119.69,90.87c1.72-1,4.09-.24,5.37,1.31a9.88,9.88,0,0,1,1.83,5.64,9.24,9.24,0,0,1-.62,4.77,4,4,0,0,1-3.88,2.39c-.64-.09-1.37-.36-1.89,0a1.54,1.54,0,0,0-.48,1.1c-.24,2.24.54,5.2-1.46,6.24-.77.4-1.8.34-2.39,1a3.78,3.78,0,0,0-.6,2,5.07,5.07,0,0,1-9.89.43,3.52,3.52,0,0,1,.5-3.09,2.2,2.2,0,0,1,2.89-.51,10.37,10.37,0,0,1-.28-12,3.15,3.15,0,0,0,.89-2.11c-.06-.4-.3-.76-.38-1.16-.19-1.05.77-1.94,1.67-2.51a20.84,20.84,0,0,1,11.09-3.24"/><g id="_Group_11" data-name="&lt;Group&gt;"><path id="_Path_27" data-name="&lt;Path&gt;" class="cls-9" d="M127.5,99.79a8.54,8.54,0,0,1,9.32,0"/><path id="_Path_28" data-name="&lt;Path&gt;" class="cls-9" d="M124.54,103.92A4.78,4.78,0,0,0,130,104a5.65,5.65,0,0,1,1.39-.92,3.37,3.37,0,0,1,1.39-.07,40.06,40.06,0,0,1,6.58,1.18"/></g><path id="_Path_29" data-name="&lt;Path&gt;" class="cls-9" d="M124.54,142.61s8.51,11,17.8-.78"/><path class="cls-9" d="M139.06,120.82a7.79,7.79,0,0,1,6.83,2.15"/><path class="cls-9" d="M126.72,120.82a7.79,7.79,0,0,0-6.83,2.15"/><path class="cls-4" d="M136.66,112.23c.31-.51,1-.57,1.61-.58l5.45,0a5.09,5.09,0,0,1,1.23.09,5.15,5.15,0,0,1,2.58,2.09c-3.65-.15-7.4.28-11,0A2.39,2.39,0,0,1,136.66,112.23Z"/><path class="cls-4" d="M128.63,112.71c-.31-.51-1-.57-1.61-.58l-5.45,0a5.09,5.09,0,0,0-1.23.09,5.15,5.15,0,0,0-2.58,2.09c3.65-.15,7.4.28,11,0A2.39,2.39,0,0,0,128.63,112.71Z"/><path class="cls-10" d="M138.35,135a25,25,0,0,1-2.47,4.28,2.66,2.66,0,0,1-.57.63,2.32,2.32,0,0,1-.81.34c-1.91.47-8-.79-7.11-3.66C131.26,137.27,134.93,137.34,138.35,135Z"/><path id="_Path_30" data-name="&lt;Path&gt;" class="cls-4" d="M119.35,137.45a5.75,5.75,0,0,0,6.74.78c1.46-.87,2.44-2.34,3.72-3.44s3.25-1.8,4.65-.84a6.07,6.07,0,0,1,1.28,1.42,14,14,0,0,0,12.69,5.28c-2,.11-3.78-1.5-4.81-3.26s-1.62-3.77-2.82-5.42a9.16,9.16,0,0,0-11.88-2.28c-2.42,1.53-4,4.17-6.45,5.65"/></g></svg>