<svg id="Layer_1" data-name="Layer 1" xmlns="http://www.w3.org/2000/svg" xmlns:xlink="http://www.w3.org/1999/xlink" viewBox="0 0 122.17 72.83"><defs><style>.cls-1{fill:none;}.cls-2{clip-path:url(#clip-path);}.cls-3{fill:#fff;}.cls-4{fill:#dfded7;}.cls-5{fill:#224448;}</style><clipPath id="clip-path"><rect class="cls-1" x="49.95" width="72.23" height="72.83"/></clipPath></defs><title>like</title><g class="cls-2"><path class="cls-3" d="M103.39,35.12h-3.8A1.14,1.14,0,0,1,98.45,34V18.85A3.42,3.42,0,0,0,95,15.43H92.6a8,8,0,0,0-8,8v7.22H55.76a5.78,5.78,0,0,0-5.81,5.58,5.7,5.7,0,0,0,2.79,5,5.7,5.7,0,0,0,.91,9.12,5.7,5.7,0,0,0,1.1,9.23A5.69,5.69,0,0,0,53,63.82a5.77,5.77,0,0,0,5.8,5.59h29.4a10.25,10.25,0,0,0,8.35-4.3,1.15,1.15,0,0,1,.93-.49h5.92V35.12Z"/></g><polygon class="cls-4" points="100.35 35.2 103.39 35.2 103.39 64.7 100.35 64.7 100.35 35.2 100.35 35.2"/><path class="cls-5" d="M121,34.06H103.39a1.14,1.14,0,0,0-1.14,1.14V71.69a1.14,1.14,0,0,0,1.14,1.14H121a1.14,1.14,0,0,0,1.14-1.14V35.2A1.14,1.14,0,0,0,121,34.06Z"/><path class="cls-5" d="M102.25,66.37v5.32a1.14,1.14,0,0,0,1.14,1.14H121a1.14,1.14,0,0,0,1.14-1.14V66.37Z"/><path class="cls-4" d="M55.65,30.71a5.7,5.7,0,0,0-2.91,10.6,5.7,5.7,0,0,0,.91,9.12,5.7,5.7,0,0,0,1.1,9.23,5.7,5.7,0,0,0,3.94,9.82H84.62c-2.43-5.18-7.39-17.78-3.12-31.55a37.32,37.32,0,0,1,3.12-7.22Z"/><path class="cls-3" d="M71.77,58.08H58.69a5.7,5.7,0,0,0,0,11.4H71.77a5.7,5.7,0,0,0,0-11.4Z"/><path class="cls-4" d="M53.63,61.16a5.68,5.68,0,0,0,3.84,1.49H71.77a5.7,5.7,0,0,0,4.56-2.28,5.7,5.7,0,0,0-4.56-2.28H58.69a5.71,5.71,0,0,0-5.06,3.07Z"/><path class="cls-3" d="M71.77,49H57.47a5.7,5.7,0,0,0,0,11.4H71.77a5.7,5.7,0,0,0,0-11.4Z"/><path class="cls-4" d="M52.44,52a5.69,5.69,0,0,0,4.12,1.77H71.77a5.7,5.7,0,0,0,4.64-2.39A5.7,5.7,0,0,0,71.77,49H57.47a5.71,5.71,0,0,0-5,3Z"/><path class="cls-3" d="M71.77,39.84H56.56a5.7,5.7,0,1,0,0,11.4H71.77a5.7,5.7,0,0,0,0-11.4Z"/><path class="cls-4" d="M51.53,42.86a5.68,5.68,0,0,0,4.12,1.77H71.77a5.7,5.7,0,0,0,4.64-2.39,5.7,5.7,0,0,0-4.64-2.39H56.56a5.71,5.71,0,0,0-5,3Z"/><path class="cls-3" d="M71.77,30.71H55.65a5.7,5.7,0,0,0,0,11.4H71.77a5.7,5.7,0,0,0,0-11.4Z"/><path class="cls-3" d="M8.56,29l1.12,3a.29.29,0,0,0,.55,0l1.13-3a9,9,0,0,1,5.32-5.32l3-1.13a.29.29,0,0,0,0-.55l-3-1.12a9,9,0,0,1-5.32-5.32l-1.13-3a.29.29,0,0,0-.55,0l-1.12,3a9,9,0,0,1-5.32,5.32L.19,22a.29.29,0,0,0,0,.55l3,1.13A9,9,0,0,1,8.56,29Zm0,0"/><path class="cls-3" d="M33.28,41.91l-3-1.12a9,9,0,0,1-5.32-5.32l-1.12-3a.29.29,0,0,0-.55,0l-1.13,3a9,9,0,0,1-5.32,5.32l-3,1.12a.29.29,0,0,0,0,.55l3,1.13a9,9,0,0,1,5.32,5.32l1.13,3a.29.29,0,0,0,.55,0l1.12-3a9,9,0,0,1,5.32-5.32l3-1.13a.29.29,0,0,0,0-.55Zm0,0"/><path class="cls-3" d="M49.07,28.87,47,28.11a6.11,6.11,0,0,1-3.62-3.62l-.76-2.07a.2.2,0,0,0-.37,0l-.76,2.07a6.11,6.11,0,0,1-3.62,3.62l-2.07.76a.2.2,0,0,0,0,.37l2.07.76a6.11,6.11,0,0,1,3.62,3.62l.76,2.07a.2.2,0,0,0,.37,0l.76-2.07A6.11,6.11,0,0,1,47,30l2.07-.76a.2.2,0,0,0,0-.37Zm0,0"/><path class="cls-3" d="M44,56.15l-1.44-.53a4.26,4.26,0,0,1-2.52-2.52l-.53-1.44a.14.14,0,0,0-.13-.09.14.14,0,0,0-.13.09l-.53,1.44a4.26,4.26,0,0,1-2.52,2.52l-1.45.53a.14.14,0,0,0,0,.26l1.45.53a4.26,4.26,0,0,1,2.52,2.52l.53,1.45a.14.14,0,0,0,.26,0l.53-1.45a4.26,4.26,0,0,1,2.52-2.52L44,56.41a.14.14,0,0,0,0-.26Zm0,0"/><path class="cls-3" d="M33.39,14.59l-1.45-.53a4.26,4.26,0,0,1-2.52-2.52l-.53-1.44a.14.14,0,0,0-.13-.09.14.14,0,0,0-.13.09l-.53,1.44a4.26,4.26,0,0,1-2.52,2.52l-1.44.53a.14.14,0,0,0,0,.26l1.44.53a4.26,4.26,0,0,1,2.52,2.52l.53,1.45a.14.14,0,0,0,.13.09.14.14,0,0,0,.13-.09l.53-1.45a4.26,4.26,0,0,1,2.52-2.52l1.44-.53a.14.14,0,0,0,0-.26Zm0,0"/><path class="cls-3" d="M15.66,53.18l-1.82-.67a5.36,5.36,0,0,1-3.18-3.17L10,47.51a.17.17,0,0,0-.33,0L9,49.33a5.36,5.36,0,0,1-3.18,3.18L4,53.18a.17.17,0,0,0,0,.33l1.82.67A5.36,5.36,0,0,1,9,57.35l.67,1.82a.17.17,0,0,0,.33,0l.67-1.82a5.36,5.36,0,0,1,3.18-3.18l1.82-.67a.17.17,0,0,0,0-.33Zm0,0"/></svg>