<svg id="onboarding" xmlns="http://www.w3.org/2000/svg" viewBox="0 0 236.63 177.43"><defs><style>.cls-1,.cls-2,.cls-3{fill:#fff;}.cls-1{opacity:0.1;}.cls-3,.cls-5{stroke:#592b5f;}.cls-3,.cls-5,.cls-6,.cls-7{stroke-miterlimit:10;}.cls-4{fill:#592b5f;}.cls-5,.cls-6,.cls-7{fill:none;}.cls-6,.cls-7{stroke:#fff;stroke-width:0.5px;}.cls-7{stroke-dasharray:2.11 2.11;}</style></defs><title>slide-three</title><g id="illustration"><g id="_Group_" data-name="&lt;Group&gt;"><path id="_Path_" data-name="&lt;Path&gt;" class="cls-1" d="M236.63,126.51a117.69,117.69,0,0,1-11,49.88H11a118.32,118.32,0,1,1,225.62-49.88Z"/><path id="_Path_2" data-name="&lt;Path&gt;" class="cls-1" d="M220.4,126.49a101.48,101.48,0,0,1-13,49.9H29.24a102.09,102.09,0,1,1,191.16-49.9Z"/><path id="_Path_3" data-name="&lt;Path&gt;" class="cls-1" d="M203.47,126.71a84.86,84.86,0,0,1-16,49.68H48.82a85.3,85.3,0,1,1,154.65-49.68Z"/><path id="_Path_4" data-name="&lt;Path&gt;" class="cls-1" d="M186.5,126.71a68.15,68.15,0,0,1-21.41,49.68H71.24A68.34,68.34,0,1,1,186.5,126.71Z"/><path id="_Path_5" data-name="&lt;Path&gt;" class="cls-1" d="M169.47,129.71c0,22.51-13.89,38.77-33.56,46.68H96c-19.68-7.91-33.57-24.17-33.57-46.68a53.54,53.54,0,0,1,107.07,0Z"/><circle id="_Path_6" data-name="&lt;Path&gt;" class="cls-1" cx="117.31" cy="133.5" r="39.27"/></g><g id="_Group_2" data-name="&lt;Group&gt;"><path id="_Path_7" data-name="&lt;Path&gt;" class="cls-2" d="M168.72,5.31c1.89-.5,3.62-1.26,4.52-3.17.28-.6.48-1.24.72-1.86a1.29,1.29,0,0,1,.22-.28,1.26,1.26,0,0,1,.24.29c.21.51.42,1,.61,1.53a4.8,4.8,0,0,0,3,2.95c.45.17.9.32,1.34.5.11,0,.18.16.28.25-.09.1-.17.24-.28.29-.47.2-.94.37-1.42.54a4.87,4.87,0,0,0-3.1,3.31c-.12.36-.24.71-.39,1.06,0,.12-.19.2-.28.29-.09-.1-.23-.18-.28-.3-.27-.66-.47-1.34-.78-2a5.09,5.09,0,0,0-3.28-2.61c-.38-.12-.75-.29-1.13-.44Z"/><path id="_Path_8" data-name="&lt;Path&gt;" class="cls-2" d="M179.36,16.44a3.76,3.76,0,0,0-3.25,3.24l-.12,0a2.8,2.8,0,0,1-.24-.37c-.1-.22-.17-.46-.26-.69a3,3,0,0,0-2.15-1.92,6,6,0,0,1-.82-.38c.48-.2.82-.36,1.18-.49A2.88,2.88,0,0,0,175.51,14c.08-.23.16-.46.26-.69a.93.93,0,0,1,.19-.21c.08.07.18.13.22.22.14.33.26.67.4,1a2.85,2.85,0,0,0,1.84,1.62c.31.1.61.25.91.38Z"/><path id="_Path_9" data-name="&lt;Path&gt;" class="cls-2" d="M182.31,11A3.06,3.06,0,0,0,185,13.67a8.64,8.64,0,0,0-1.77,1,7.9,7.9,0,0,0-1,1.66c-.06-.08-.2-.2-.24-.35a2.76,2.76,0,0,0-2.13-2.09,2.41,2.41,0,0,1-.32-.15,8,8,0,0,0,1.7-1A8.68,8.68,0,0,0,182.31,11Z"/></g><g id="_Group_3" data-name="&lt;Group&gt;"><path id="_Path_10" data-name="&lt;Path&gt;" class="cls-2" d="M158.3,29.65c.23.56.41,1,.59,1.43a8.93,8.93,0,0,0,1.4,2.68,6.17,6.17,0,0,0,2.51,1.74c.57.22,1.14.42,1.71.65a4.11,4.11,0,0,1,.57.38c-.58.23-1,.42-1.46.58a8.78,8.78,0,0,0-2.67,1.4A6.33,6.33,0,0,0,159.21,41c-.25.58-.43,1.18-.66,1.76a4,4,0,0,1-.35.54,13.78,13.78,0,0,1-.6-1.35,6.65,6.65,0,0,0-1.59-3,11,11,0,0,0-2.31-1.51,15,15,0,0,0-1.76-.67,3.49,3.49,0,0,1-.52-.36c.45-.2.78-.36,1.12-.49a9.59,9.59,0,0,0,3-1.49,6.23,6.23,0,0,0,1.74-2.5c.23-.58.43-1.18.66-1.76A3.16,3.16,0,0,1,158.3,29.65Z"/><path id="_Path_11" data-name="&lt;Path&gt;" class="cls-2" d="M146.73,21.25c.51-.21,1-.43,1.53-.62A4,4,0,0,0,150.72,18a7.83,7.83,0,0,1,.32-.83,1.78,1.78,0,0,1,.27-.34,1.79,1.79,0,0,1,.26.34c.25.57.46,1.17.74,1.73a4.3,4.3,0,0,0,2.76,2c.27.09.53.21.8.32l0,.18c-.45.19-.89.39-1.35.55a4.12,4.12,0,0,0-2.64,2.65c-.09.26-.17.53-.29.78a2.53,2.53,0,0,1-.31.42,3,3,0,0,1-.27-.4c-.28-.62-.5-1.27-.84-1.86a4.38,4.38,0,0,0-2.62-1.81c-.29-.1-.57-.22-.85-.32Z"/><path id="_Path_12" data-name="&lt;Path&gt;" class="cls-2" d="M147.36,32.85a3.53,3.53,0,0,0-3.14,3.06l-.17,0a2,2,0,0,1-.33-.55A3.2,3.2,0,0,0,141.28,33a1.55,1.55,0,0,1-.36-.24c.13-.1.24-.25.38-.28A3.33,3.33,0,0,0,143.8,30a2.18,2.18,0,0,1,.21-.4,10.26,10.26,0,0,0,1.26,2A11.07,11.07,0,0,0,147.36,32.85Z"/></g><g id="_Group_4" data-name="&lt;Group&gt;"><circle id="_Path_13" data-name="&lt;Path&gt;" class="cls-3" cx="120.26" cy="75.07" r="33.62"/><path id="_Path_14" data-name="&lt;Path&gt;" class="cls-2" d="M99,117s12.29,1,9.77-10.73a35.59,35.59,0,0,0,25,0s-2.33,10.54,7.47,11.07l5.38,34.6L99,146.83Z"/><path id="_Path_15" data-name="&lt;Path&gt;" class="cls-4" d="M69.43,144a30.94,30.94,0,0,1,2.12-11.55,19.47,19.47,0,0,1,.91-2,23.59,23.59,0,0,1,17.14-12.55c3.07-.57,6.23-.65,9.35-1,.8,14,11.55,22.32,23,21.37,8.6-.71,18.63-7.81,19.19-21a29.93,29.93,0,0,1,13.71,1.73,24.73,24.73,0,0,1,14.94,16.21c.12.37.22.75.32,1.13a34.37,34.37,0,0,1,.95,8.38v24.61c-.11.17,0,5.64,0,5.82-.57,3.92-4.41,1.46-7.95,1.46q-42.94,0-85.89,0a15.8,15.8,0,0,1-3-.26c-3-.7-4.37,3.77-4.77-3.67Z"/><path id="_Path_16" data-name="&lt;Path&gt;" class="cls-4" d="M127,113.32c13.62-4.42,18.81-18.39,18.2-33-14.37,4.16-32.17-6-38-17.75-5.43,2.11-11,10.12-12.08,17.52A25.64,25.64,0,0,0,115,108.52c-11.9-.89-26.08-11.75-28.4-27.77-3.08-21.32,11.63-36.61,28.08-39,21-3.1,36.3,11.5,38.86,27.53C157.1,91.49,142.53,111.3,127,113.32Z"/></g><path id="_Path_17" data-name="&lt;Path&gt;" class="cls-4" d="M111.46,94.59H126a6,6,0,0,1-6,6h-2.63a6,6,0,0,1-6-6Z"/><path id="_Path_18" data-name="&lt;Path&gt;" class="cls-2" d="M113.31,98.72c1.22-1.15,3.05-1.29,4.73-1.25,1.91,0,4,.29,5.37,1.57a7.81,7.81,0,0,1-4.14,1.34,11.82,11.82,0,0,1-4.33-.69,4.31,4.31,0,0,1-1.71-.94"/><path id="_Path_19" data-name="&lt;Path&gt;" class="cls-4" d="M103,80.55c-.06-.09,0-.2.12-.26A8.16,8.16,0,0,1,108.24,79a6.33,6.33,0,0,1,1.92.28,3.86,3.86,0,0,1,1.56,1,1.41,1.41,0,0,1,.41.72.64.64,0,0,1-.35.69c-.33.12-.67-.14-.95-.36a6.41,6.41,0,0,0-6.31-.88A4.05,4.05,0,0,1,103,81a1.54,1.54,0,0,1,.07-.77"/><path id="_Path_20" data-name="&lt;Path&gt;" class="cls-4" d="M132.54,81.13c.06-.09,0-.2-.12-.26a8.16,8.16,0,0,0-5.08-1.27,6.33,6.33,0,0,0-1.92.28,3.86,3.86,0,0,0-1.56,1,1.41,1.41,0,0,0-.41.72.64.64,0,0,0,.35.69c.33.12.67-.14.95-.36a6.41,6.41,0,0,1,6.31-.88,4.05,4.05,0,0,0,1.56.48,1.54,1.54,0,0,0-.07-.77"/><path id="_Path_21" data-name="&lt;Path&gt;" class="cls-4" d="M115.8,87.25a2.38,2.38,0,0,0,1,1.12,3.47,3.47,0,0,0,1.55.35,2.45,2.45,0,0,0,2.46-1.43.37.37,0,0,1,.16-.17.24.24,0,0,1,.28.16.57.57,0,0,1,0,.36,3.06,3.06,0,0,1-2.69,1.82,3.19,3.19,0,0,1-1.95-.34,1.8,1.8,0,0,1-.93-1.66"/><g id="_Group_5" data-name="&lt;Group&gt;"><path id="_Path_22" data-name="&lt;Path&gt;" class="cls-2" d="M56.56,104l-8.17,6.14v9.1A4.75,4.75,0,0,1,43.65,124H13.16a4.75,4.75,0,0,1-4.74-4.75V88.75A4.74,4.74,0,0,1,13.16,84H43.65a4.74,4.74,0,0,1,4.74,4.74v9.42Z"/><rect id="_Rectangle_" data-name="&lt;Rectangle&gt;" class="cls-5" x="11.56" y="85.9" width="34.25" height="35.34" rx="4.04" ry="4.04"/><path id="_Path_23" data-name="&lt;Path&gt;" class="cls-4" d="M18.3,104.22,21.55,101l4.35,4.36,9.78-9.78L39,98.91l-13,13Z"/></g><g id="_Group_6" data-name="&lt;Group&gt;"><path id="_Path_24" data-name="&lt;Path&gt;" class="cls-2" d="M171.56,115.78l8.09,6.07v9a4.7,4.7,0,0,0,4.7,4.71h30.18a4.7,4.7,0,0,0,4.7-4.71V100.69a4.7,4.7,0,0,0-4.7-4.7H184.34a4.7,4.7,0,0,0-4.7,4.7V110Z"/><path id="_Compound_Path_" data-name="&lt;Compound Path&gt;" class="cls-4" d="M207.65,114.74a17.5,17.5,0,0,1-.51,1.74,12.11,12.11,0,0,1-.84,1.78c-.51.86-1,1.72-1.63,2.53s-1.07,1.34-1.63,2c-.42.48-.85,1-1.31,1.39-.66.63-1.36,1.23-2,1.84a.81.81,0,0,1-1,0c-.27-.22-.55-.44-.81-.68-.66-.62-1.34-1.23-2-1.89S194.64,122,194,121.3a19.47,19.47,0,0,1-2.51-4,9.62,9.62,0,0,1-.92-2.81,9.42,9.42,0,0,1-.09-1.8,8.11,8.11,0,0,1,1.1-3.76,12.48,12.48,0,0,1,1.09-1.51,7.88,7.88,0,0,1,2.75-2.08,7,7,0,0,1,2.41-.71,14.7,14.7,0,0,1,2-.08,7.77,7.77,0,0,1,2.65.64,8.57,8.57,0,0,1,1.88,1.09,8.75,8.75,0,0,1,1.5,1.45,8.66,8.66,0,0,1,1.15,1.85,8,8,0,0,1,.67,2.26c0,.15.06.29.08.44V114C207.74,114.27,207.72,114.51,207.65,114.74ZM195,113.45a4.17,4.17,0,1,0,4.17-4.34A4.13,4.13,0,0,0,195,113.45Z"/><rect id="_Rectangle_2" data-name="&lt;Rectangle&gt;" class="cls-5" x="182.21" y="97.86" width="33.9" height="34.99" rx="4.04" ry="4.04" transform="translate(398.32 230.72) rotate(-180)"/></g><g id="_Group_7" data-name="&lt;Group&gt;"><path id="_Path_25" data-name="&lt;Path&gt;" class="cls-2" d="M83.2,53.42,75,59.56v9.1a4.75,4.75,0,0,1-4.74,4.75H39.8a4.75,4.75,0,0,1-4.74-4.75V38.18a4.74,4.74,0,0,1,4.74-4.74H70.28A4.74,4.74,0,0,1,75,38.18V47.6Z"/><rect id="_Rectangle_3" data-name="&lt;Rectangle&gt;" class="cls-5" x="38.19" y="35.33" width="34.25" height="35.34" rx="4.04" ry="4.04"/><g id="_Group_8" data-name="&lt;Group&gt;"><g id="_Group_9" data-name="&lt;Group&gt;"><path id="_Path_26" data-name="&lt;Path&gt;" class="cls-4" d="M67,55.63c-2.24,0-4.48,0-6.71,0-.63,0-1.26.11-1.88.17L56.79,56l-1.53.22L54,56.36l-1.54.18-.68,0-1.38,0a.57.57,0,0,0-.65.48,1.14,1.14,0,0,0,.44,1.29.83.83,0,0,0,.4.1h6.56v1.6H56.9c-2.12,0-4.25,0-6.37,0a2.3,2.3,0,0,1-1.81-.95,3.27,3.27,0,0,1-.6-1.47.27.27,0,0,0-.13-.18l-2.34-1a5.35,5.35,0,0,0-1-.38c-.58-.11-.78-.08-1,.42v.55a1.89,1.89,0,0,0,.25.53,17.54,17.54,0,0,0,1.55,1.54,25.61,25.61,0,0,0,2.12,1.54,14.58,14.58,0,0,0,3.37,1.68,8.58,8.58,0,0,0,2.77.57s.06,0,.09,0h.5a.46.46,0,0,1,.11,0c.48,0,1-.06,1.43-.14.8-.14,1.6-.29,2.38-.48,1-.25,2-.54,3-.84s2-.67,3.07-1c.3-.1.57-.29.95-.12.6.27,1.24.45,1.86.67Q67,58.32,67,55.63Z"/><path id="_Path_27" data-name="&lt;Path&gt;" class="cls-4" d="M51.37,43a8.18,8.18,0,0,0-.87.31,3,3,0,0,0-1.73,2.26,3.11,3.11,0,0,0,.43,2.2A8.08,8.08,0,0,0,51,49.83c.7.61,1.45,1.16,2.18,1.72a10.7,10.7,0,0,0,.93.62.3.3,0,0,0,.27,0A24.42,24.42,0,0,0,57,50.24,9.78,9.78,0,0,0,59.06,48a3.68,3.68,0,0,0,.58-1.6,3.1,3.1,0,0,0-1.93-3.11L57,43H56l-.22.07a3.37,3.37,0,0,0-1.58.89c-.37-.24-.7-.49-1.07-.69a4.86,4.86,0,0,0-.79-.27Z"/><path id="_Path_28" data-name="&lt;Path&gt;" class="cls-4" d="M54.19,58.51h0a.83.83,0,0,1,0,1.6h0v.65L58,60.43V58.14S54.22,57.32,54.19,58.51Z"/></g></g></g><g id="_Group_10" data-name="&lt;Group&gt;"><g id="_Group_11" data-name="&lt;Group&gt;"><line id="_Path_29" data-name="&lt;Path&gt;" class="cls-6" x1="118.99" y1="138.36" x2="119" y2="139.36"/><line id="_Path_30" data-name="&lt;Path&gt;" class="cls-7" x1="119.03" y1="141.47" x2="119.48" y2="174.16"/><line id="_Path_31" data-name="&lt;Path&gt;" class="cls-6" x1="119.49" y1="175.21" x2="119.5" y2="176.21"/></g></g><circle id="_Path_32" data-name="&lt;Path&gt;" class="cls-2" cx="123.03" cy="148.48" r="1.34"/><circle id="_Path_33" data-name="&lt;Path&gt;" class="cls-2" cx="123.03" cy="160.48" r="1.34"/><circle id="_Path_34" data-name="&lt;Path&gt;" class="cls-2" cx="123.45" cy="172.87" r="1.34"/></g></svg>