<svg id="onboarding" xmlns="http://www.w3.org/2000/svg" viewBox="0 0 295.49 227.99"><defs><style>.cls-1,.cls-2,.cls-4{fill:#fff;}.cls-2{opacity:0.1;}.cls-3{fill:#43b3a1;}.cls-4,.cls-5{stroke:#43b3a1;stroke-miterlimit:10;}.cls-5{fill:none;}</style></defs><title>slide-two</title><g id="_Group_" data-name="&lt;Group&gt;"><path id="_Path_" data-name="&lt;Path&gt;" class="cls-1" d="M24.44,119.64c1.89-.5,3.62-1.26,4.52-3.17.28-.6.48-1.24.72-1.86a1.29,1.29,0,0,1,.22-.28,1.26,1.26,0,0,1,.24.29c.21.51.42,1,.61,1.53a4.8,4.8,0,0,0,3,2.95c.45.17.9.32,1.34.5.11,0,.18.16.28.25-.09.1-.17.24-.28.29-.47.2-.94.37-1.42.54a4.87,4.87,0,0,0-3.1,3.31c-.12.36-.24.71-.39,1.06,0,.12-.19.2-.28.29-.09-.1-.23-.18-.28-.3-.27-.66-.47-1.34-.78-2a5.09,5.09,0,0,0-3.28-2.61c-.38-.12-.75-.29-1.13-.44Z"/><path id="_Path_2" data-name="&lt;Path&gt;" class="cls-1" d="M35.07,130.78A3.76,3.76,0,0,0,31.82,134l-.12,0a2.8,2.8,0,0,1-.24-.37c-.1-.22-.17-.46-.26-.69A3,3,0,0,0,29,131a6,6,0,0,1-.82-.38c.48-.2.82-.36,1.18-.49a2.88,2.88,0,0,0,1.82-1.86c.08-.23.16-.46.26-.69a.93.93,0,0,1,.19-.21c.08.07.18.13.22.22.14.33.26.67.4,1a2.85,2.85,0,0,0,1.84,1.62c.31.1.61.25.91.38Z"/><path id="_Path_3" data-name="&lt;Path&gt;" class="cls-1" d="M38,125.33A3.06,3.06,0,0,0,40.71,128a8.64,8.64,0,0,0-1.77,1,7.9,7.9,0,0,0-1,1.66c-.06-.08-.2-.2-.24-.35a2.76,2.76,0,0,0-2.13-2.09,2.41,2.41,0,0,1-.32-.15,8,8,0,0,0,1.7-1A8.68,8.68,0,0,0,38,125.33Z"/></g><g id="_Group_2" data-name="&lt;Group&gt;"><path id="_Path_4" data-name="&lt;Path&gt;" class="cls-1" d="M225.11,37.75c.23.56.41,1,.59,1.43a8.93,8.93,0,0,0,1.4,2.68,6.17,6.17,0,0,0,2.51,1.74c.57.22,1.14.42,1.71.65a4.11,4.11,0,0,1,.57.38c-.58.23-1,.42-1.46.58a8.78,8.78,0,0,0-2.67,1.4A6.33,6.33,0,0,0,226,49.07c-.25.58-.43,1.18-.66,1.76a4,4,0,0,1-.35.54,13.78,13.78,0,0,1-.6-1.35,6.65,6.65,0,0,0-1.59-3,11,11,0,0,0-2.31-1.51,15,15,0,0,0-1.76-.67,3.49,3.49,0,0,1-.52-.36c.45-.2.78-.36,1.12-.49a9.59,9.59,0,0,0,3-1.49,6.23,6.23,0,0,0,1.74-2.5c.23-.58.43-1.18.66-1.76A3.16,3.16,0,0,1,225.11,37.75Z"/><path id="_Path_5" data-name="&lt;Path&gt;" class="cls-1" d="M213.55,29.35c.51-.21,1-.43,1.53-.62a4,4,0,0,0,2.45-2.63,7.83,7.83,0,0,1,.32-.83,1.78,1.78,0,0,1,.27-.34,1.79,1.79,0,0,1,.26.34c.25.57.46,1.17.74,1.73a4.3,4.3,0,0,0,2.76,2c.27.09.53.21.8.32l0,.18c-.45.19-.89.39-1.35.55a4.12,4.12,0,0,0-2.64,2.65c-.09.26-.17.53-.29.78a2.53,2.53,0,0,1-.31.42,3,3,0,0,1-.27-.4c-.28-.62-.5-1.27-.84-1.86a4.38,4.38,0,0,0-2.62-1.81c-.29-.1-.57-.22-.85-.32Z"/><path id="_Path_6" data-name="&lt;Path&gt;" class="cls-1" d="M214.18,41A3.53,3.53,0,0,0,211,44l-.17,0a2,2,0,0,1-.33-.55,3.2,3.2,0,0,0-2.44-2.41,1.55,1.55,0,0,1-.36-.24c.13-.1.24-.25.38-.28a3.33,3.33,0,0,0,2.51-2.5,2.18,2.18,0,0,1,.21-.4,10.26,10.26,0,0,0,1.26,2A11.07,11.07,0,0,0,214.18,41Z"/></g><g id="_Group_3" data-name="&lt;Group&gt;"><path id="_Path_7" data-name="&lt;Path&gt;" class="cls-2" d="M263.85,162a117.69,117.69,0,0,1-11,49.88H38.23A118.32,118.32,0,1,1,263.85,162Z"/><path id="_Path_8" data-name="&lt;Path&gt;" class="cls-2" d="M247.62,162a101.48,101.48,0,0,1-13,49.9H56.46A102.09,102.09,0,1,1,247.62,162Z"/><path id="_Path_9" data-name="&lt;Path&gt;" class="cls-2" d="M230.69,162.18a84.86,84.86,0,0,1-16,49.68H76a85.3,85.3,0,1,1,154.65-49.68Z"/><path id="_Path_10" data-name="&lt;Path&gt;" class="cls-2" d="M213.72,162.18a68.15,68.15,0,0,1-21.41,49.68H98.46a68.34,68.34,0,1,1,115.26-49.68Z"/><path id="_Path_11" data-name="&lt;Path&gt;" class="cls-2" d="M196.69,165.18c0,22.51-13.89,38.77-33.56,46.68H123.19c-19.68-7.91-33.57-24.17-33.57-46.68a53.54,53.54,0,0,1,107.07,0Z"/><circle id="_Path_12" data-name="&lt;Path&gt;" class="cls-2" cx="144.53" cy="168.96" r="39.27"/></g><g id="_Group_4" data-name="&lt;Group&gt;"><path id="_Path_13" data-name="&lt;Path&gt;" class="cls-3" d="M105.18,211.2s-24.81-72.09,39.95-70.06a85.8,85.8,0,0,0,11.64-.39c15.57-1.63,59.32-.3,41.55,70.44Z"/><path id="_Path_14" data-name="&lt;Path&gt;" class="cls-1" d="M162,165.37l5.19,45.83H139.94l4.29-46c.11-1.17-.44-4.18-1.43-4.81h0c-.55-.3.52.39,0,0l-16.48-17.28c26-18.78,45.76-1.59,45.76-1.59l-7,16.43A8.26,8.26,0,0,0,162,165.37Z"/><g id="_Group_5" data-name="&lt;Group&gt;"><path id="_Path_15" data-name="&lt;Path&gt;" class="cls-4" d="M167.27,148.92c-9.31,11.62-27.33,11.38-36-.7-10.13-14.05-6.74-31.6-6.74-31.6a26.28,26.28,0,0,1,52.57,0C177.88,131.26,173,141.74,167.27,148.92Z"/></g><path id="_Path_16" data-name="&lt;Path&gt;" class="cls-3" d="M124,122.22s32.54,9.13,34.42-20.93c0,0-2.81,23.84,18.32,25.23,0,0,8-34.62-25.94-36.19C150.79,90.33,123.39,88.67,124,122.22Z"/><ellipse id="_Path_17" data-name="&lt;Path&gt;" class="cls-3" cx="153.61" cy="89.06" rx="14.82" ry="12.21"/><g id="_Group_6" data-name="&lt;Group&gt;"><path id="_Path_18" data-name="&lt;Path&gt;" class="cls-3" d="M136.71,132.32c-.05-.08,0-.19.11-.25a7.67,7.67,0,0,1,4.77-1.19,6,6,0,0,1,1.8.26,3.63,3.63,0,0,1,1.46,1,1.32,1.32,0,0,1,.38.68.6.6,0,0,1-.33.65c-.31.11-.63-.13-.89-.34a6,6,0,0,0-5.92-.82,3.81,3.81,0,0,1-1.46.46,1.44,1.44,0,0,1,.06-.72"/><path id="_Path_19" data-name="&lt;Path&gt;" class="cls-3" d="M164.42,132.87c.05-.08,0-.19-.11-.25a7.67,7.67,0,0,0-4.77-1.19,6,6,0,0,0-1.8.26,3.63,3.63,0,0,0-1.46,1,1.32,1.32,0,0,0-.38.68.6.6,0,0,0,.33.65c.31.11.63-.13.89-.34a6,6,0,0,1,5.92-.82,3.81,3.81,0,0,0,1.46.46,1.44,1.44,0,0,0-.06-.72"/></g><path id="_Path_20" data-name="&lt;Path&gt;" class="cls-3" d="M148,139.42a2.24,2.24,0,0,0,1,1.05,3.26,3.26,0,0,0,1.46.33,2.31,2.31,0,0,0,2.31-1.35.35.35,0,0,1,.15-.16.22.22,0,0,1,.27.15.54.54,0,0,1,0,.34,2.87,2.87,0,0,1-2.53,1.71,3,3,0,0,1-1.83-.32,1.69,1.69,0,0,1-.87-1.56"/><g id="_Group_7" data-name="&lt;Group&gt;"><circle id="_Path_21" data-name="&lt;Path&gt;" class="cls-5" cx="138.56" cy="133.45" r="8.27"/><circle id="_Path_22" data-name="&lt;Path&gt;" class="cls-5" cx="162.57" cy="133.45" r="8.27"/><path id="_Path_23" data-name="&lt;Path&gt;" class="cls-5" d="M146.84,130.78s3.21-5.95,7.46,0"/></g><line id="_Path_24" data-name="&lt;Path&gt;" class="cls-5" x1="170.84" y1="133.45" x2="176.49" y2="129.07"/><line id="_Path_25" data-name="&lt;Path&gt;" class="cls-5" x1="130.29" y1="133.45" x2="123.97" y2="129.33"/><path id="_Path_26" data-name="&lt;Path&gt;" class="cls-3" d="M144.94,144.61a10.39,10.39,0,0,0,10.94-.69,4.5,4.5,0,0,1-2,3.42,6.7,6.7,0,0,1-3.92,1,4.82,4.82,0,0,1-1.49-.23c-1.49-.52-2.39-2-3.16-3.37"/></g><g id="_Group_8" data-name="&lt;Group&gt;"><g id="_Group_9" data-name="&lt;Group&gt;"><path id="_Path_27" data-name="&lt;Path&gt;" class="cls-1" d="M177.45,72.15l6.34-8.71,9.6-.14a5,5,0,0,0,4.94-5.08l-.48-32.14a5,5,0,0,0-5.09-4.93l-32.13.48a5,5,0,0,0-4.93,5.08l.48,32.14a5,5,0,0,0,5.08,4.93l9.93-.15Z"/><path id="_Path_28" data-name="&lt;Path&gt;" class="cls-5" d="M195.42,57,195,28a3.52,3.52,0,0,0-3.57-3.47l-29.35.45a3.52,3.52,0,0,0-3.47,3.57L159,57.57c0,1.95.76,3.5,2.7,3.47l30.22-.45A3.52,3.52,0,0,0,195.42,57Z"/></g><g id="_Group_10" data-name="&lt;Group&gt;"><path id="_Path_29" data-name="&lt;Path&gt;" class="cls-3" d="M165.15,52.56c.11-.41.19-.83.33-1.22a5.54,5.54,0,0,1,1.92-2.57,5.3,5.3,0,0,1,2.48-1.06,17.61,17.61,0,0,1,1.92-.09A4.55,4.55,0,0,0,173.2,51a4.45,4.45,0,0,0,3.32,1.36,4.72,4.72,0,0,0,4.69-4.68c.54,0,1.08,0,1.62,0a4.26,4.26,0,0,1,1.51.37,5.59,5.59,0,0,1,2.19,1.6,5.52,5.52,0,0,1,1.15,2.25,5,5,0,0,1,.16,1.11c0,2,0,4,0,6a1.9,1.9,0,0,1-1.45,1.86,2.05,2.05,0,0,1-.48.05H167.1a2,2,0,0,1-1.9-1.36.63.63,0,0,0,0-.09Q165.15,56,165.15,52.56Z"/><path id="_Path_30" data-name="&lt;Path&gt;" class="cls-3" d="M177,30.61l.58.09A6.83,6.83,0,0,1,180.88,32a9.59,9.59,0,0,1,1.28,1.14,7.39,7.39,0,0,1,1.62,2.9,8.12,8.12,0,0,1,.26,2.85,6.7,6.7,0,0,1-.6,2.32,7.2,7.2,0,0,1-1.62,2.36,7.44,7.44,0,0,1-3.92,2l-.22,0a5.79,5.79,0,0,0,4.44-6.37,4.57,4.57,0,0,1-1.77.27,8,8,0,0,1-2.69-.65,8.77,8.77,0,0,1-3.13-2.24,16.43,16.43,0,0,1-1-1.37,5.57,5.57,0,0,0-2.67,4.15,5.45,5.45,0,0,0,1,4,5.7,5.7,0,0,0,3.42,2.22l0,.07c-.42-.11-.84-.2-1.25-.34a7.36,7.36,0,0,1-2.52-1.43,7.17,7.17,0,0,1-2.27-3.4,10.11,10.11,0,0,1-.33-1.66,7.12,7.12,0,0,1,.75-4.07,7.2,7.2,0,0,1,1.64-2.19A7.73,7.73,0,0,1,175,30.76c.28-.06.58-.07.87-.1a.51.51,0,0,0,.12,0Z"/></g></g><g id="_Group_11" data-name="&lt;Group&gt;"><g id="_Group_12" data-name="&lt;Group&gt;"><path id="_Path_31" data-name="&lt;Path&gt;" class="cls-1" d="M183.3,107.92l8.4,6.31v9.36a4.89,4.89,0,0,0,4.88,4.89h31.35a4.88,4.88,0,0,0,4.88-4.89V92.25a4.88,4.88,0,0,0-4.88-4.88H196.58a4.88,4.88,0,0,0-4.88,4.88v9.69Z"/><rect id="_Rectangle_" data-name="&lt;Rectangle&gt;" class="cls-5" x="194.36" y="89.31" width="35.22" height="36.35" rx="4.04" ry="4.04" transform="translate(423.94 214.97) rotate(-180)"/></g><g id="_Group_13" data-name="&lt;Group&gt;"><path id="_Path_32" data-name="&lt;Path&gt;" class="cls-3" d="M203.54,115c.09-.26.17-.52.27-.78a3.1,3.1,0,0,1,1.33-1.52,3,3,0,0,1,1.54-.47l3.59,0h0a2.37,2.37,0,0,1-.9.53,1.23,1.23,0,0,0-.77,1.15h0a4,4,0,0,0,6.72,0v0a1.18,1.18,0,0,0-.74-1.09,2.49,2.49,0,0,1-.95-.55h.2c1,0,2.06,0,3.1,0a3.44,3.44,0,0,1,2.59,1.11,3,3,0,0,1,.83,1.74s0,0,0,0v7.62a.25.25,0,0,0,0,.07,1.66,1.66,0,0,1-1.55,1.26q-6.84,0-13.68,0a1.82,1.82,0,0,1-.81-.24,1.74,1.74,0,0,1-.78-1Z"/><path id="_Compound_Path_" data-name="&lt;Compound Path&gt;" class="cls-3" d="M212.45,97.06l.85.19a4.73,4.73,0,0,1,2,1,4.79,4.79,0,0,1,1.57,2.44,4.68,4.68,0,0,1,.18,1.1c0,1.29,0,2.58.06,3.87a1.62,1.62,0,0,0,1.07,1.38c.18.06.37.09.59.14a1.54,1.54,0,0,1-.35,1,1.75,1.75,0,0,1-1.48.67h-10a1.67,1.67,0,0,1-1.71-1.67,5.12,5.12,0,0,0,.95-.39,1.52,1.52,0,0,0,.71-1.33c0-1.1,0-2.21,0-3.31a5.07,5.07,0,0,1,1-3.14A4.87,4.87,0,0,1,211,97.16l.47-.09Zm-3.76,6.8a15.91,15.91,0,0,0,0,2.24,3.28,3.28,0,0,0,3.23,2.76,3.19,3.19,0,0,0,1.65-.44,3,3,0,0,0,1.61-2.13,21.49,21.49,0,0,0,.16-2.44A3.19,3.19,0,0,1,212,101,3.16,3.16,0,0,1,208.68,103.86Z"/></g></g><g id="_Group_14" data-name="&lt;Group&gt;"><g id="_Group_15" data-name="&lt;Group&gt;"><path id="_Path_33" data-name="&lt;Path&gt;" class="cls-1" d="M198,142.49l9.86,7.4v11a5.73,5.73,0,0,0,5.73,5.74h36.79a5.73,5.73,0,0,0,5.73-5.74V124.1a5.72,5.72,0,0,0-5.73-5.73H213.54a5.72,5.72,0,0,0-5.73,5.73v11.37Z"/><rect id="_Rectangle_2" data-name="&lt;Rectangle&gt;" class="cls-5" x="210.94" y="120.66" width="41.32" height="42.65" rx="4.04" ry="4.04" transform="translate(463.21 283.97) rotate(-180)"/></g><g id="_Group_16" data-name="&lt;Group&gt;"><path id="_Path_34" data-name="&lt;Path&gt;" class="cls-3" d="M218.78,156.63c.11-.47.19-.94.35-1.39a7.29,7.29,0,0,1,3.14-3.85,9,9,0,0,1,3-1.1c.37-.08.74-.15,1.11-.27a.51.51,0,0,1,.52.1l2.05,1.72,1.18,1a3.25,3.25,0,0,0-.51,1.45,2.83,2.83,0,0,0-.13.65.82.82,0,0,0,.67.94.37.37,0,0,1,.16.31c-.12.77-.27,1.54-.4,2.31l-.5,2.84c-.11.62-.21,1.25-.34,1.87,0,.07-.17.15-.26.16-.5,0-1,0-1.49,0-2.21,0-4.42,0-6.63,0a1.84,1.84,0,0,1-1.9-1.18Z"/><path id="_Compound_Path_2" data-name="&lt;Compound Path&gt;" class="cls-3" d="M239,138.75c-.09.56-.2,1.2-.28,1.84a.4.4,0,0,0,.09.3,2,2,0,0,1,.54,1.24,4.36,4.36,0,0,1-.27,2.11,1.86,1.86,0,0,1-1.08,1.09.9.9,0,0,0-.57.56,9.71,9.71,0,0,1-1.48,2.39,7.11,7.11,0,0,1-2.27,1.87,4.94,4.94,0,0,1-3.08.53,5.91,5.91,0,0,1-3.15-1.58,9.69,9.69,0,0,1-2.38-3.41.45.45,0,0,0-.25-.26,2.33,2.33,0,0,1-1.66-2.18,3.94,3.94,0,0,1,.11-1.73,1.23,1.23,0,0,1,.61-.78c.26-.13.3-.34.33-.58.1-.8.16-1.61.34-2.39a6.51,6.51,0,0,1,1.53-2.95,9.68,9.68,0,0,1,3.43-2.47,5.13,5.13,0,0,1,5.56.6c.42.34.76.78,1.16,1.14a3.9,3.9,0,0,0,.72.52,3.9,3.9,0,0,1,1.87,2.64A14.32,14.32,0,0,1,239,138.75Zm-4.43-2a10,10,0,0,1-3.18,2.28,11.15,11.15,0,0,1-4.32,1c-.43,0-.87,0-1.3,0a.33.33,0,0,0-.21.24,12.13,12.13,0,0,0,.16,2.75,10.32,10.32,0,0,0,1.11,3,7.18,7.18,0,0,0,2.42,2.66,3.58,3.58,0,0,0,3.65.24,6.66,6.66,0,0,0,2.88-2.92,9.68,9.68,0,0,0,1.15-3.23,3.94,3.94,0,0,0,0-1.65,13.13,13.13,0,0,0-1-2.53A17.31,17.31,0,0,0,234.53,136.76Z"/><path id="_Path_35" data-name="&lt;Path&gt;" class="cls-3" d="M232.36,152.79,234,151.4l1.42-1.18a.62.62,0,0,1,.64-.2c.94.28,1.9.49,2.82.79a6.66,6.66,0,0,1,2.22,1.33,7.06,7.06,0,0,1,2.28,3.72,5.26,5.26,0,0,1,.16,1.23c0,1.58,0,3.17,0,4.75a1.53,1.53,0,0,1-1.54,1.52H234c-.58,0-.58,0-.67-.55-.25-1.46-.52-2.91-.77-4.36-.13-.76-.26-1.52-.39-2.28a.25.25,0,0,1,.19-.31.85.85,0,0,0,.61-1.19c-.1-.41-.17-.83-.28-1.23A5.19,5.19,0,0,0,232.36,152.79Z"/></g></g><g id="_Group_17" data-name="&lt;Group&gt;"><g id="_Group_18" data-name="&lt;Group&gt;"><path id="_Path_36" data-name="&lt;Path&gt;" class="cls-1" d="M93.07,93.11,83.85,100v10.28a5.36,5.36,0,0,1-5.36,5.36H44.09a5.36,5.36,0,0,1-5.36-5.36V75.91a5.35,5.35,0,0,1,5.36-5.35H78.5a5.35,5.35,0,0,1,5.36,5.35V86.54Z"/><rect id="_Rectangle_3" data-name="&lt;Rectangle&gt;" class="cls-5" x="42.28" y="72.69" width="38.65" height="39.89" rx="4.04" ry="4.04"/></g><g id="_Group_19" data-name="&lt;Group&gt;"><path id="_Path_37" data-name="&lt;Path&gt;" class="cls-3" d="M49.83,110.55V102h0c0-.09.05-.17.08-.26a3.71,3.71,0,0,1,1.29-2,3.39,3.39,0,0,1,2-.8c1.3,0,2.6,0,3.9,0a.37.37,0,0,1,.26.15q1.4,2.06,2.78,4.13l.75,1.11a.11.11,0,0,0,.19,0h0c1.15-1.73,2.31-3.46,3.46-5.2a.39.39,0,0,1,.38-.2h3.77a2.57,2.57,0,0,1,.56.07,3.73,3.73,0,0,1,2.1,1.31,3.31,3.31,0,0,1,.79,2.08c0,2.62,0,5.23,0,7.85A1.84,1.84,0,0,1,70.43,112q-9.43,0-18.86,0a1.86,1.86,0,0,1-.85-.25,1.94,1.94,0,0,1-.89-1.16Z"/><path id="_Compound_Path_3" data-name="&lt;Compound Path&gt;" class="cls-3" d="M61.53,82.15l.77.16a5.71,5.71,0,0,1,2.44,1.18,7.13,7.13,0,0,1,2.08,2.71,7,7,0,0,1,.61,2.12,14.1,14.1,0,0,1,.1,1.51,8,8,0,0,1-.62,3,7.14,7.14,0,0,1-1.79,2.61A6.17,6.17,0,0,1,61.95,97a5.89,5.89,0,0,1-2.69-.18,5.79,5.79,0,0,1-2-1.08,7.19,7.19,0,0,1-2.06-2.7,7.29,7.29,0,0,1-.66-2.45,13.59,13.59,0,0,1,0-1.46,8,8,0,0,1,.64-2.83,7.27,7.27,0,0,1,2-2.69A5.73,5.73,0,0,1,60,82.25l.46-.1ZM56.61,89a10.89,10.89,0,0,0-.24,1.34A4.54,4.54,0,0,0,57,92.8c.1.18.19.18.36.11l3.51-1.41a.49.49,0,0,1,.32,0l1.94.77L64.9,93c.08-.14.15-.25.21-.37a4.44,4.44,0,0,0,.42-2.93,4.68,4.68,0,0,0-2.46-3.27c-.14-.08-.22-.07-.31.09a4,4,0,0,1-.48.7,6.45,6.45,0,0,1-2.65,1.86A3.54,3.54,0,0,1,56.61,89Zm2.57,4.36a1.8,1.8,0,0,0,1.6,1.77,1.83,1.83,0,0,0,2.05-1.77Z"/></g></g><g id="_Group_20" data-name="&lt;Group&gt;"><g id="_Group_21" data-name="&lt;Group&gt;"><path id="_Path_38" data-name="&lt;Path&gt;" class="cls-1" d="M103.15,131.7l-9.22,6.93V148.9a5.36,5.36,0,0,1-5.36,5.36H54.16a5.36,5.36,0,0,1-5.36-5.36V114.5a5.35,5.35,0,0,1,5.36-5.35H88.57a5.35,5.35,0,0,1,5.36,5.35v10.63Z"/><rect id="_Rectangle_4" data-name="&lt;Rectangle&gt;" class="cls-5" x="52.35" y="111.28" width="38.65" height="39.89" rx="4.04" ry="4.04"/></g><g id="_Group_22" data-name="&lt;Group&gt;"><path id="_Compound_Path_4" data-name="&lt;Compound Path&gt;" class="cls-3" d="M60.79,145.44c.07-.26.13-.51.21-.77a6.26,6.26,0,0,1,4.76-4.4,2,2,0,0,1,1.91.34,4.89,4.89,0,0,0,3.68,1,5.57,5.57,0,0,0,3.06-1.39.47.47,0,0,1,.53-.14c.71.23,1.44.39,2.13.65a5.58,5.58,0,0,1,2.58,2,6,6,0,0,1,1.18,3.73c0,1.27,0,2.54,0,3.81a1.25,1.25,0,0,1-1.19,1.2H62a1.3,1.3,0,0,1-1.2-.87Zm15-3.72v8.38h3.68c0-1.42,0-2.86,0-4.29a.51.51,0,0,0,0-.11,5.09,5.09,0,0,0-1.79-3.05A5.29,5.29,0,0,0,75.77,141.72Zm-13.59,8.34h3.39v-8.23a4.64,4.64,0,0,0-3.36,4C62.07,147.21,62.17,148.63,62.17,150.06Zm8.13-5.67a.54.54,0,0,0,.5.54.59.59,0,0,0,.51-.54.51.51,0,1,0-1,0Zm.5,2.21a.51.51,0,0,0,0,1,.56.56,0,0,0,.51-.53A.56.56,0,0,0,70.8,146.61Z"/><path id="_Compound_Path_5" data-name="&lt;Compound Path&gt;" class="cls-3" d="M63.84,133a1.5,1.5,0,0,1-1.44-1,1.9,1.9,0,0,1,.65-2.41,1.38,1.38,0,0,1-.52-1.08,1.29,1.29,0,0,1,.56-1.07,2.48,2.48,0,0,1-.2-1.67,1.94,1.94,0,0,1,1.63-1.43c.08,0,.22-.15.25-.26a2.15,2.15,0,0,1,2.28-1.6,4.31,4.31,0,0,1,1.05.38,1.84,1.84,0,0,1,.3.21,2.4,2.4,0,0,1,2.64-1.75,2.37,2.37,0,0,1,2.11,1.77,2.2,2.2,0,0,1,3.72,1.25c1.6,0,2.23,1.75,1.63,3.07a1.37,1.37,0,0,1,0,2.2,2,2,0,0,1,.77,2.16A1.67,1.67,0,0,1,77.74,133a3.18,3.18,0,0,1-.47,2.47,2.56,2.56,0,0,1-.8.61.76.76,0,0,0-.41.38,7.79,7.79,0,0,1-3.17,3.67,4.1,4.1,0,0,1-2.72.5,5.82,5.82,0,0,1-4-2.86c-.31-.47-.54-1-.81-1.5a.45.45,0,0,0-.22-.18,2,2,0,0,1-1.29-1.87C63.81,133.81,63.84,133.41,63.84,133Zm11.84-.91c0-.41-.09-1.2-.24-2a3.76,3.76,0,0,0-1.19-2.29,3,3,0,0,0-1-.56c-.16-.05-.41.17-.62.28a4.45,4.45,0,0,1-2.2.35,3.61,3.61,0,0,1-2-.56.33.33,0,0,0-.25-.06,3.16,3.16,0,0,0-1.74,1.61,9.22,9.22,0,0,0-.37,5.69A7,7,0,0,0,69,138.9a3,3,0,0,0,2.24.47A4.45,4.45,0,0,0,74,137.44,8.75,8.75,0,0,0,75.68,132.07Z"/><path id="_Path_39" data-name="&lt;Path&gt;" class="cls-3" d="M67.11,142.69a6.81,6.81,0,0,0,.19,2.18"/></g></g><rect id="_Rectangle_5" data-name="&lt;Rectangle&gt;" class="cls-3" x="21.58" y="211.2" width="243.5" height="3.41"/></svg>