<svg id="onboarding" xmlns="http://www.w3.org/2000/svg" viewBox="0 0 279.04 211.32"><defs><style>.cls-1,.cls-2{fill:#fff;}.cls-1{opacity:0.1;}.cls-3{fill:#f63371;}.cls-4{opacity:0.5;}.cls-5{opacity:0.7;}.cls-6{fill:none;stroke:#fff;stroke-miterlimit:10;stroke-width:0.6px;stroke-dasharray:2;}</style></defs><title>slide-one</title><g id="illustration"><g id="_Group_" data-name="&lt;Group&gt;"><g id="_Group_2" data-name="&lt;Group&gt;"><path id="_Path_" data-name="&lt;Path&gt;" class="cls-1" d="M250,118.32a117.69,117.69,0,0,1-11,49.88H24.37A118.32,118.32,0,1,1,250,118.32Z"/><path id="_Path_2" data-name="&lt;Path&gt;" class="cls-1" d="M233.76,118.3a101.48,101.48,0,0,1-13,49.9H42.6a102.09,102.09,0,1,1,191.16-49.9Z"/><path id="_Path_3" data-name="&lt;Path&gt;" class="cls-1" d="M216.83,118.52a84.86,84.86,0,0,1-16,49.68H62.18a85.3,85.3,0,1,1,154.65-49.68Z"/><path id="_Path_4" data-name="&lt;Path&gt;" class="cls-1" d="M199.86,118.52a68.15,68.15,0,0,1-21.41,49.68H84.6a68.34,68.34,0,1,1,115.26-49.68Z"/><path id="_Path_5" data-name="&lt;Path&gt;" class="cls-1" d="M182.83,121.52c0,22.51-13.89,38.77-33.56,46.68H109.33C89.65,160.29,75.76,144,75.76,121.52a53.54,53.54,0,0,1,107.07,0Z"/><circle id="_Path_6" data-name="&lt;Path&gt;" class="cls-1" cx="130.67" cy="125.3" r="39.27"/></g><g id="_Group_3" data-name="&lt;Group&gt;"><path id="_Compound_Path_" data-name="&lt;Compound Path&gt;" class="cls-2" d="M101.7,99.08v69H19.4q0-18.2,0-36.4c.73-1,1.85-.55,2.83-.7,0-1.46,0-2.84,0-4.22a1.22,1.22,0,0,1,1.4-1.39c2.8,0,5.6.06,8.39,0A1.54,1.54,0,0,1,33.7,127c0,1.29,0,2.59,0,3.91h2.67v-1c0-11.74,0-23.48,0-35.23,0-1.57.78-2.17,2.12-2.11,1.18,0,2.35,0,3.56,0,0-2.78,0-5.44,0-8.1a1.83,1.83,0,0,1,.84-1.71H61.3a2.28,2.28,0,0,1,.68,2c0,2.3,0,4.6,0,6.9v.92c1.33,0,2.55.06,3.76,0a1.88,1.88,0,0,1,2.08,2.11c0,8.95,0,17.89,0,26.84v1h4c0-1.36,0-2.68,0-4a1.57,1.57,0,0,1,1.44-1.76,12.73,12.73,0,0,1,1.38,0c0-.47,0-.85,0-1.23.12-1.13.58-1.53,1.59-1.59.84-.05,1.39.65,1.39,1.64,0,.38,0,.75,0,1.17h1c1,0,1.94.42,1.83,1.82s0,2.64,0,3.93h1.34v-1.06c0-7,0-14.07,0-21.11,0-1.34.44-2,2.08-2h2.26c0-1.38.08-2.66,0-3.92s.72-1.75,1.74-1.74c2.55,0,5.1,0,7.64,0,1.61,0,2.1.49,2.1,2.09,0,1.18,0,2.35,0,3.51C99,98.41,100.57,97.8,101.7,99.08Zm-48.38,66v-1q0-12.18,0-24.36c0-3.3,0-6.59,0-9.89A1.44,1.44,0,0,1,55,128.18c.95,0,1.35.46,1.35,1.53q0,17.17,0,34.33v1H59v-1q0-16.83,0-33.67a3.13,3.13,0,0,1,0-.75c.25-1,.64-1.56,1.91-1.42.67.08,1.06.63,1.06,1.57q0,17.17,0,34.33V165h2.83V164q0-17.17,0-34.33a1.3,1.3,0,0,1,.87-1.41,1.41,1.41,0,0,1,1.81.58,3.28,3.28,0,0,1,.31,1.4q0,16.92,0,33.83v1h2.67v-1q0-17.12,0-34.25c0-1.14.48-1.61,1.59-1.58,1,0,1.39.58,1.39,1.81q0,17,0,34.08v1H76.1V164q0-17.08,0-34.17c0-1.22.51-1.7,1.71-1.63.84.05,1.27.64,1.27,1.76q0,17.08,0,34.17V165h2.61V125.58h-31v39.47Zm-5.69-31H22.45v31H36.36V164q0-12.88,0-25.75c0-1.1.45-1.55,1.54-1.55h9.73ZM44.84,131v-.58q0-15.16,0-30.32c0-.14.05-.32,0-.41-.31-.38-.59-.91-1-1-.95-.33-1.66.35-1.66,1.47q0,15.12,0,30.24c0,.21,0,.42.05.65Zm3-8.22,2.64-.33c0-.15,0-.31,0-.47q0-11,0-21.92c0-.08,0-.17,0-.25a1.33,1.33,0,0,0-1.24-1.3,1.13,1.13,0,0,0-1.28,1c-.07.82-.14,1.63-.14,2.45C47.82,108.92,47.83,115.9,47.83,122.75Zm8.32-.26v-1q0-6.85,0-13.7c0-2.66,0-5.31,0-8a1.23,1.23,0,0,0-.8-1.22,1.38,1.38,0,0,0-1.24.16,2.46,2.46,0,0,0-.61,1.51c0,7.17,0,14.33,0,21.5,0,.21,0,.43,0,.68Zm5.65,0v-1q0-8.51,0-17c0-1.55.06-3.1,0-4.65a1.69,1.69,0,0,0-.77-1.2,1.36,1.36,0,0,0-1.29.21,2.8,2.8,0,0,0-.54,1.64c0,7.08,0,14.17,0,21.25,0,.24,0,.48,0,.75ZM50.49,92c0-.66,0-1.33,0-2a1.33,1.33,0,1,0-2.65-.14c-.06,1.41-.05,2.82,0,4.23A1.33,1.33,0,1,0,50.49,94C50.5,93.35,50.49,92.69,50.49,92Zm5.65.06c0-.69,0-1.38,0-2.07a1.28,1.28,0,0,0-1.27-1.4A1.49,1.49,0,0,0,53.49,90q0,2,0,4.07A1.41,1.41,0,0,0,55,95.43c.75,0,1.19-.55,1.19-1.44C56.15,93.35,56.14,92.72,56.14,92.08Zm-8.5,61.7c-1.43,0-2.78,0-4.13,0a1.52,1.52,0,0,0-1.34,1.33,1.11,1.11,0,0,0,.94,1.26c1.5.1,3,0,4.53,0Zm0,5.65c-1.12,0-2.17,0-3.21,0a4.4,4.4,0,0,0-1.36.18,1.23,1.23,0,0,0-.86,1.34,1.15,1.15,0,0,0,1.12,1.12c1.43.05,2.86,0,4.33,0Zm0-11.31c-1.42,0-2.74,0-4.07,0a1.56,1.56,0,0,0-1.39,1.29,1.38,1.38,0,0,0,1.08,1.35c1.45,0,2.91,0,4.38,0Zm0-5.65c-1.42,0-2.74,0-4.07,0a1.57,1.57,0,0,0-1.39,1.29,1.45,1.45,0,0,0,1.19,1.35c1.42.06,2.84,0,4.27,0Zm48.25-9.71c0-.44,0-.88,0-1.32A1.29,1.29,0,0,0,94.65,130a1.5,1.5,0,0,0-1.42,1.31c0,1,0,1.93,0,2.9a1.52,1.52,0,0,0,1.47,1.28,1.29,1.29,0,0,0,1.18-1.4C95.89,133.65,95.88,133.21,95.88,132.77Zm-5.65,17c0-.44,0-.88,0-1.32A1.57,1.57,0,0,0,89,147,1.27,1.27,0,0,0,87.64,148a19.17,19.17,0,0,0,.08,3.51c.07.81.74,1,1.4.89a1.19,1.19,0,0,0,1.1-1.22C90.25,150.72,90.23,150.23,90.23,149.73Zm0-42.58c0-.44,0-.88,0-1.32A1.56,1.56,0,0,0,89,104.41a1.28,1.28,0,0,0-1.36,1.08,15.4,15.4,0,0,0,.07,3.44,1.1,1.1,0,0,0,1.43,1,1.25,1.25,0,0,0,1.09-1.32Q90.23,107.85,90.23,107.15Zm0,34.06c0-.44,0-.88,0-1.33a1.47,1.47,0,0,0-1.3-1.4,1.55,1.55,0,0,0-1.35,1.23,27.88,27.88,0,0,0,0,3A1.4,1.4,0,0,0,89,144a1.29,1.29,0,0,0,1.23-1.44C90.23,142.1,90.23,141.66,90.23,141.21Zm5.65,0c0-.44,0-.88,0-1.32a1.33,1.33,0,0,0-1.32-1.45,1.55,1.55,0,0,0-1.33,1.33c0,.94,0,1.87,0,2.81A1.49,1.49,0,0,0,94.61,144a1.28,1.28,0,0,0,1.27-1.39C95.89,142.14,95.88,141.7,95.88,141.26Zm-8.32-25.52c0,.44,0,.89,0,1.33a1.58,1.58,0,0,0,1.32,1.46,1.52,1.52,0,0,0,1.34-1.42c0-.94,0-1.88,0-2.82a1.43,1.43,0,0,0-1.38-1.35,1.51,1.51,0,0,0-1.28,1.39C87.55,114.79,87.56,115.26,87.56,115.74Zm8.32,34c0-.47,0-.94,0-1.41,0-.62-.6-1.35-1.18-1.33s-1.23.23-1.3.9a17.85,17.85,0,0,0-.11,3.52,1.2,1.2,0,0,0,1.57,1c.76-.15,1-.74,1-1.46C95.88,150.56,95.88,150.15,95.88,149.74Zm0-42.55a10.57,10.57,0,0,1,0-1.41,1.37,1.37,0,0,0-1.18-1.34c-.6,0-1.26.23-1.32,1a18.76,18.76,0,0,0-.1,3.44c.08.83.75,1.16,1.57,1.06a1.34,1.34,0,0,0,1-1.46C95.89,108,95.88,107.6,95.88,107.18Zm-5.65,25.58c0-.44,0-.88,0-1.33A1.29,1.29,0,0,0,89,130a1.42,1.42,0,0,0-1.42,1.36c0,.94,0,1.88,0,2.82a1.54,1.54,0,0,0,1.35,1.32,1.48,1.48,0,0,0,1.3-1.4C90.24,133.65,90.23,133.21,90.23,132.77Zm0,25.48c0-.47,0-.94,0-1.41a1.36,1.36,0,0,0-1.32-1.3,1.38,1.38,0,0,0-1.33,1.28c0,1,0,1.94,0,2.9a1.57,1.57,0,0,0,1.32,1.36,1.54,1.54,0,0,0,1.33-1.34C90.25,159.24,90.23,158.75,90.23,158.25Zm5.65-34c0-.5,0-1,0-1.49a1.22,1.22,0,0,0-1.08-1.25c-.61-.11-1.29.07-1.35.73a20.46,20.46,0,0,0,0,4c0,.3.85.74,1.29.72a1.19,1.19,0,0,0,1.12-1.18C95.89,125.27,95.88,124.77,95.88,124.28Zm-5.65.14c0-.57,0-1,0-1.45a1.33,1.33,0,1,0-2.65-.17,13.38,13.38,0,0,0,0,2.9c.07.43.59.83,1,1.15s.84,0,1.21-.3C90.59,125.91,90.05,125,90.23,124.42Zm5.65-8.72c0-.42,0-.83,0-1.25a1.38,1.38,0,0,0-1.2-1.49,1.14,1.14,0,0,0-1.29,1,23,23,0,0,0,0,3.57c.06.76.75,1,1.38.89a1.18,1.18,0,0,0,1.11-1.28C95.87,116.64,95.88,116.17,95.88,115.7Zm0,42.65c0-.47,0-.94,0-1.41a1.25,1.25,0,0,0-1.13-1.37,1,1,0,0,0-1.29.77,22.74,22.74,0,0,0-.07,3.73c0,.77.74,1,1.37.9a1.18,1.18,0,0,0,1.12-1.28C95.88,159.24,95.88,158.79,95.88,158.35Z"/><path id="_Path_7" data-name="&lt;Path&gt;" class="cls-2" d="M25.05,156.56c0-.44,0-.89,0-1.33a1.28,1.28,0,0,1,1.34-1.58A1.37,1.37,0,0,1,28,155.07a19.27,19.27,0,0,1,0,3.06c-.06.93-.79,1.39-1.89,1.3-.67-.05-1.08-.61-1.08-1.46C25.05,157.5,25.05,157,25.05,156.56Z"/><path id="_Path_8" data-name="&lt;Path&gt;" class="cls-2" d="M28.08,147.87c-.13,1.13.21,2-.6,2.76a1.31,1.31,0,0,1-1.58.2,1.78,1.78,0,0,1-.8-1.17,30.47,30.47,0,0,1,0-3.15,1.26,1.26,0,0,1,1.07-1.35,1.42,1.42,0,0,1,1.73.89A12.67,12.67,0,0,1,28.08,147.87Z"/><path id="_Path_9" data-name="&lt;Path&gt;" class="cls-2" d="M30.71,139.58c0-.5,0-1,0-1.49A1.28,1.28,0,0,1,32,136.66,1.51,1.51,0,0,1,33.68,138c0,1.05,0,2.1,0,3.15A1.53,1.53,0,0,1,32,142.47a1.31,1.31,0,0,1-1.28-1.4C30.7,140.58,30.71,140.08,30.71,139.58Z"/><path id="_Path_10" data-name="&lt;Path&gt;" class="cls-2" d="M30.71,148c0-.47,0-.94,0-1.41a1.34,1.34,0,0,1,1.46-1.49,1.51,1.51,0,0,1,1.52,1.49q0,1.41,0,2.82a1.48,1.48,0,0,1-1.57,1.5c-.95,0-1.41-.5-1.41-1.51C30.7,149,30.71,148.51,30.71,148Z"/><path id="_Path_11" data-name="&lt;Path&gt;" class="cls-2" d="M33.81,156.56a17.63,17.63,0,0,1-.4,2.23c-.26.84-1.08.77-1.66.59a1.66,1.66,0,0,1-1-1.09,24.7,24.7,0,0,1,0-3.48,1.59,1.59,0,0,1,1.38-1.19A1.55,1.55,0,0,1,33.68,155c0,.52,0,1,0,1.57Z"/><path id="_Path_12" data-name="&lt;Path&gt;" class="cls-2" d="M25.05,139.57c0-.44,0-.88,0-1.33,0-.93.37-1.46,1.09-1.57a1.38,1.38,0,0,1,1.77,1.15,16.75,16.75,0,0,1-.06,3.66,1.31,1.31,0,0,1-1.71,1,1.26,1.26,0,0,1-1.09-1.41C25.06,140.56,25.05,140.06,25.05,139.57Z"/></g><path id="_Compound_Path_2" data-name="&lt;Compound Path&gt;" class="cls-2" d="M170.53,80.73h40.81A2.53,2.53,0,0,1,212,82.8c0,5.81,0,11.62,0,17.43v.91c-3.4,0-6.66.05-9.91,0a4.46,4.46,0,0,0-4.57,4.56c.09,5.38,0,10.77,0,16.15q0,12.88,0,25.76c0,.32,0,.77.22.92.78.6,1.63,1.1,2.49,1.67v-1q0-21.72,0-43.44c0-1.45.48-1.92,2-1.92,10.31,0,20.63,0,30.94,0,1.53,0,2.14.75,2.14,2.19q0,23.63,0,47.27a1.44,1.44,0,0,0,.79,1.4c3.77,2.28,5.21,5.72,5,10h5.32a2.1,2.1,0,0,1,1.87.84v2.21H161.18c0-.74,2.14-.63,2.14-1.37.45-.65,0,0,.74,0,1.56,0,2.1-1.69,3.66-1.69h2.13v-1.22q0-40.38,0-80.76A2.37,2.37,0,0,1,170.53,80.73Zm7,84h30.37a8.69,8.69,0,0,1-.06-4.93,35.07,35.07,0,0,1,2.13-4.36,5.63,5.63,0,0,0-7,1.75,2.28,2.28,0,0,1-1.53.72,1.35,1.35,0,0,1-1.33-1.26,6.84,6.84,0,0,0-3.5-5.12,6.53,6.53,0,0,0-7.17,0,6.73,6.73,0,0,0-3.48,6,1.63,1.63,0,0,1-1.26,1.64c-.74.09-1.49.18-2.22.35A7,7,0,0,0,177.54,164.69Zm60.37,0a8.29,8.29,0,0,0,.11-1.82,8.78,8.78,0,0,0-1.63-3.93,7.48,7.48,0,0,0-7.23-2.49,7.57,7.57,0,0,0-4.61,3.57,1.58,1.58,0,0,1-2.94-.14c-.11-.25-.26-.49-.38-.74a5.72,5.72,0,0,0-6.55-2.62,5.8,5.8,0,0,0-4,6.33c.16,1.5.57,1.84,2,1.84h25.21Zm-42-66.62c0-.45,0-.9,0-1.35a1.32,1.32,0,0,0-1.23-1.42,1.52,1.52,0,0,0-1.48,1.31c-.05,1,0,2,0,3a1.56,1.56,0,0,0,1.47,1.35,1.31,1.31,0,0,0,1.24-1.4C195.88,99.09,195.87,98.61,195.87,98.13Zm0,43.55c0-.45,0-.9,0-1.35a1.31,1.31,0,0,0-1.3-1.43,1.53,1.53,0,0,0-1.41,1.38c0,.93,0,1.86,0,2.79a1.56,1.56,0,0,0,1.47,1.44,1.33,1.33,0,0,0,1.25-1.48C195.88,142.58,195.87,142.13,195.87,141.67Zm-8.67-17.4c0-.48,0-1,0-1.44a1.57,1.57,0,0,0-1.37-1.45,1.56,1.56,0,0,0-1.35,1.46c0,1,0,1.92,0,2.88a1.47,1.47,0,0,0,1.41,1.37,1.49,1.49,0,0,0,1.31-1.39C187.22,125.24,187.2,124.76,187.2,124.28Zm8.67-17.48c0-.45,0-.9,0-1.35a1.32,1.32,0,0,0-1.23-1.41,1.57,1.57,0,0,0-1.48,1.33c0,1,0,2,0,3a1.53,1.53,0,0,0,1.47,1.32,1.33,1.33,0,0,0,1.24-1.49C195.88,107.7,195.87,107.25,195.87,106.8Zm32,31.9c0-.48,0-1,0-1.44a1.29,1.29,0,0,0-1.37-1.27,1.27,1.27,0,0,0-1.34,1.21c0,1,0,2,0,3a1.58,1.58,0,0,0,1.37,1.36,1.62,1.62,0,0,0,1.34-1.39C227.87,139.72,227.84,139.21,227.84,138.7ZM184.47,89.37c0,.48,0,1,0,1.44a1.62,1.62,0,0,0,1.33,1.49,1.59,1.59,0,0,0,1.39-1.51c0-.93,0-1.86,0-2.79a1.29,1.29,0,0,0-1.32-1.31A1.3,1.3,0,0,0,184.48,88C184.46,88.46,184.47,88.92,184.47,89.37Zm32,58.11c0,.45,0,.9,0,1.35a1.33,1.33,0,0,0,1.19,1.46,1.55,1.55,0,0,0,1.53-1.37c0-1,0-1.92,0-2.87a1.55,1.55,0,0,0-1.53-1.37,1.33,1.33,0,0,0-1.19,1.45C216.44,146.58,216.44,147,216.44,147.48Zm-29.24-31.9c0-.42,0-.85,0-1.27a1.38,1.38,0,1,0-2.72,0c0,.9,0,1.8,0,2.71a1.36,1.36,0,0,0,2.72,0C187.22,116.53,187.2,116.05,187.2,115.58Zm29.24,23.14c0,.48,0,1,0,1.44a1.36,1.36,0,0,0,1.3,1.46,1.57,1.57,0,0,0,1.41-1.32c0-1,0-2,0-3a1.45,1.45,0,0,0-1.42-1.33,1.32,1.32,0,0,0-1.29,1.45C216.44,137.87,216.44,138.29,216.44,138.72ZM187.2,133c0-.51,0-1,0-1.52a1.36,1.36,0,0,0-2.71,0c0,1,0,2,0,3a1.57,1.57,0,0,0,1.39,1.42,1.63,1.63,0,0,0,1.32-1.41C187.22,133.94,187.2,133.46,187.2,133Zm32.08-20.39-.11,0q0-.64,0-1.27a1.32,1.32,0,0,0,0-.17,1.68,1.68,0,0,0-1.33-1.33,1.55,1.55,0,0,0-1.38,1.2c0,1.07,0,2.15,0,3.22a1.21,1.21,0,0,0,1.11,1.18c.59.09,1.17,0,1.35-.69A20.08,20.08,0,0,0,219.28,112.6Zm8.57.19c0-.51,0-1,0-1.52a1.36,1.36,0,1,0-2.72,0c0,1,0,1.92,0,2.87a1.36,1.36,0,0,0,2.71,0C227.86,113.68,227.84,113.23,227.84,112.78Zm-52-14.62c0,.45,0,.9,0,1.36a1.5,1.5,0,0,0,1.31,1.45,1.58,1.58,0,0,0,1.4-1.33c0-1,0-2,0-3a1.44,1.44,0,0,0-1.43-1.32,1.32,1.32,0,0,0-1.28,1.45C175.79,97.26,175.8,97.71,175.8,98.16Zm11.4,0c0-.45,0-.9,0-1.36a1.32,1.32,0,0,0-1.27-1.46,1.44,1.44,0,0,0-1.44,1.31c-.05,1,0,2,0,3a1.57,1.57,0,0,0,1.39,1.34,1.51,1.51,0,0,0,1.32-1.44C187.21,99.07,187.2,98.62,187.2,98.17Zm-11.4,8.65c0,.45,0,.9,0,1.36a1.32,1.32,0,0,0,1.27,1.47,1.43,1.43,0,0,0,1.44-1.31c.06-1,0-2,0-3a1.57,1.57,0,0,0-1.39-1.34,1.51,1.51,0,0,0-1.32,1.44C175.79,105.92,175.8,106.37,175.8,106.82Zm11.4.07c0-.45,0-.9,0-1.36a1.49,1.49,0,0,0-1.34-1.51,1.58,1.58,0,0,0-1.38,1.44c0,.93,0,1.87,0,2.8a1.44,1.44,0,0,0,1.46,1.38,1.32,1.32,0,0,0,1.25-1.48C187.21,107.74,187.2,107.32,187.2,106.9Zm29.24,14.38c0,.48,0,1,0,1.44,0,.69.29,1.27,1.06,1.38s1.5-.23,1.59-1.08a16.46,16.46,0,0,0,0-3.38,1.34,1.34,0,0,0-1.38-1.11c-.65,0-1.29.77-1.29,1.48C216.44,120.43,216.44,120.85,216.44,121.27Zm-37.92,3c0-.48,0-1,0-1.44a1.36,1.36,0,1,0-2.72-.06c0,1,0,2,0,3a1.56,1.56,0,0,0,1.36,1.37,1.63,1.63,0,0,0,1.35-1.4C178.55,125.27,178.53,124.78,178.53,124.3ZM175.8,133c0,.45,0,.9,0,1.35a1.65,1.65,0,0,0,1.29,1.51,1.57,1.57,0,0,0,1.43-1.38c0-1,0-1.92,0-2.87a1.36,1.36,0,1,0-2.71.13C175.8,132.12,175.8,132.55,175.8,133Zm32,5.79c0,.51,0,1,0,1.53a1.23,1.23,0,0,0,1.24,1.3,1.1,1.1,0,0,0,1.29-.94,20.44,20.44,0,0,0,0-3.64,1.14,1.14,0,0,0-1.4-1,1.3,1.3,0,0,0-1.13,1.4C207.77,137.85,207.77,138.31,207.77,138.76Zm-20.57,2.93c0-.45,0-.9,0-1.36a1.32,1.32,0,0,0-1.29-1.44,1.45,1.45,0,0,0-1.42,1.33c0,1,0,2,0,3a1.57,1.57,0,0,0,1.41,1.32,1.51,1.51,0,0,0,1.3-1.46C187.21,142.59,187.2,142.14,187.2,141.69Zm-11.4,0c0,.45,0,.9,0,1.36a1.51,1.51,0,0,0,1.29,1.47,1.57,1.57,0,0,0,1.42-1.31c0-1,0-2,0-3a1.45,1.45,0,0,0-1.41-1.34,1.31,1.31,0,0,0-1.3,1.43C175.79,140.77,175.8,141.22,175.8,141.68Zm0,8.67c0,.45,0,.9,0,1.36a1.32,1.32,0,0,0,1.33,1.48,1.48,1.48,0,0,0,1.38-1.46q0-1.35,0-2.71a1.58,1.58,0,0,0-1.38-1.44,1.49,1.49,0,0,0-1.34,1.51C175.8,149.49,175.8,149.92,175.8,150.34Zm0-60.89c0,.45,0,.9,0,1.35a1.65,1.65,0,0,0,1.31,1.49A1.57,1.57,0,0,0,178.51,91a28.66,28.66,0,0,0,0-3,1.36,1.36,0,1,0-2.71.16C175.8,88.61,175.8,89,175.8,89.45ZM195.87,133c0-.51,0-1,0-1.52a1.23,1.23,0,0,0-1.06-1.22c-.61-.12-1.34,0-1.4.71a21.79,21.79,0,0,0,0,4.12c0,.29.89.71,1.34.68a1.2,1.2,0,0,0,1.11-1.23C195.88,134,195.87,133.5,195.87,133Zm0-17.46c0-.45,0-.9,0-1.36,0-.7-.6-1.47-1.21-1.44s-1.31.28-1.36,1.08a20.78,20.78,0,0,0-.08,3.43,1.24,1.24,0,0,0,1.52,1.08,1.36,1.36,0,0,0,1.13-1.52C195.88,116.37,195.87,115.95,195.87,115.53Zm-20.07,0c0,.4,0,.79,0,1.19,0,1,.47,1.57,1.33,1.58s1.37-.56,1.4-1.53,0-1.7,0-2.55a1.56,1.56,0,0,0-1.48-1.53,1.7,1.7,0,0,0-1.24,1.56C175.8,114.69,175.8,115.12,175.8,115.54Zm32,14.47c0,.48,0,1,0,1.44a1.18,1.18,0,0,0,1.12,1.39c.44,0,1.27-.45,1.33-.8a14.09,14.09,0,0,0,.14-3.72,1.23,1.23,0,0,0-1.64-1,1.28,1.28,0,0,0-.94,1.48A10.92,10.92,0,0,1,207.77,130Zm-11.9-40.53c0-.54,0-1.08,0-1.61a1.23,1.23,0,0,0-1.11-1.17c-.59-.09-1.28,0-1.33.69a22.24,22.24,0,0,0,0,4.12c0,.3.88.74,1.33.71A1.21,1.21,0,0,0,195.87,91C195.88,90.5,195.87,90,195.87,89.48Zm11.9,58c0,.51,0,1,0,1.53a1.23,1.23,0,0,0,1.09,1.29,1.15,1.15,0,0,0,1.42-.89,17.53,17.53,0,0,0,0-3.82,1.15,1.15,0,0,0-1.44-.86,1.24,1.24,0,0,0-1.07,1.31C207.77,146.49,207.77,147,207.77,147.45Zm11.4-17.29c0-.45,0-.9,0-1.35a1.37,1.37,0,0,0-1.52-1.48c-.73,0-1.19.6-1.2,1.51s0,1.75,0,2.62a1.58,1.58,0,0,0,1.32,1.47,1.57,1.57,0,0,0,1.4-1.41C219.19,131.06,219.17,130.61,219.17,130.16Zm5.95-.1c0,.48,0,1,0,1.44a1.36,1.36,0,1,0,2.71,0q0-1.44,0-2.89a1.36,1.36,0,0,0-2.72,0C225.1,129.09,225.12,129.58,225.12,130.06Zm2.73-8.65c0-.48,0-1,0-1.44a1.36,1.36,0,1,0-2.72,0q0,1.4,0,2.8a1.29,1.29,0,0,0,1.32,1.33,1.3,1.3,0,0,0,1.4-1.33C227.86,122.31,227.84,121.86,227.84,121.41Zm-17.26-.06h-.09c0-.4,0-.79,0-1.19a1.76,1.76,0,0,0-1.47-1.66,1.51,1.51,0,0,0-1.25,1.67c0,.9,0,1.81,0,2.71a1.15,1.15,0,0,0,1,1.2c.65.15,1.34,0,1.55-.76A17.46,17.46,0,0,0,210.58,121.34Zm-14.71,2.95c0-.48,0-1,0-1.44a1.2,1.2,0,0,0-1.2-1.34c-.42,0-1.19.42-1.24.75a15.13,15.13,0,0,0-.14,3.72,1.19,1.19,0,0,0,1.49,1,1.31,1.31,0,0,0,1.1-1.53C195.85,125.09,195.87,124.69,195.87,124.29Zm11.9-11.65c0,.45,0,.91,0,1.35a1.23,1.23,0,0,0,1.12,1.41,1.1,1.1,0,0,0,1.42-1,21,21,0,0,0,0-3.63c-.05-.73-.74-1-1.35-1a1.26,1.26,0,0,0-1.19,1.36C207.76,111.69,207.77,112.17,207.77,112.65Zm20.17,34.88-.1,0c0-.45,0-.9,0-1.36a1.36,1.36,0,1,0-2.72,0c0,1,0,1.92,0,2.88a1.36,1.36,0,0,0,1.12,1.26,1.08,1.08,0,0,0,1.34-.71A12.39,12.39,0,0,0,227.95,147.53Zm-23.4-58.12c0-.43,0-.85,0-1.27a1.24,1.24,0,0,0-1-1.43,1.2,1.2,0,0,0-1.55,1,16.09,16.09,0,0,0-.13,3.27,1.69,1.69,0,0,0,1.53,1.3c.78-.15,1.14-.65,1.15-1.6C204.55,90.26,204.55,89.83,204.55,89.41Zm-20.07,62.38c.8-.76,1.56-1.49,2.33-2.2.43-.4.65-.87.16-1.29s-1-.76-1.35-.63a2,2,0,0,0-1.09,1.29A15.46,15.46,0,0,0,184.47,151.79Zm-8.67,8.68c.82-.78,1.62-1.53,2.4-2.3a1,1,0,0,0,.31-.63c0-.59-.88-1.45-1.41-1.25s-1.15.69-1.24,1.14A16.51,16.51,0,0,0,175.8,160.47Z"/><g id="_Group_4" data-name="&lt;Group&gt;"><path id="_Compound_Path_3" data-name="&lt;Compound Path&gt;" class="cls-2" d="M106,128.87h8.23a.9.9,0,0,1,.46.92c0,.8,0,1.6,0,2.4a.58.58,0,0,1-.63.64h-.63v1.51c.85-.74,1.67-1.44,2.47-2.15s1.6-1.49,2.44-2.19a7.59,7.59,0,0,1,1.38-.85,4.94,4.94,0,0,1,.9-.27h1.07a7,7,0,0,1,1.71.72c1.21.95,2.35,2,3.51,3,.77.68,1.53,1.38,2.3,2.07l3.22,2.84,1.52,1.36,3.11,2.73c.59.52,1.18,1,1.79,1.56a1.6,1.6,0,0,1,.5,1.61,1.21,1.21,0,0,1-1,1,9.43,9.43,0,0,1-1,.13v13.42c-.06,0-.1,0-.11,0L137,159a4.85,4.85,0,0,0-4.49-1.3,5,5,0,0,0-3.45,2.54,2.24,2.24,0,0,1-1,1.16,4.55,4.55,0,0,0-2.11,2,.88.88,0,0,1-.19.17.93.93,0,0,1,0-.11c0-2.54,0-5.08,0-7.61a4.46,4.46,0,0,0-1.45-3.48,4.26,4.26,0,0,0-3.89-1.16,4.53,4.53,0,0,0-3.66,4.48c0,2.49,0,5,0,7.46v.4l-.11.06-.1-.2a5.28,5.28,0,0,0-2.5-2.17.82.82,0,0,1-.33-.32,10.72,10.72,0,0,0-.81-1.34,5.06,5.06,0,0,0-4.25-1.93,4.84,4.84,0,0,0-2.73,1c-.32.24-.61.52-1,.84V145.85h-.37a1.46,1.46,0,0,1-1.5-1,1.72,1.72,0,0,1,.55-1.74c.44-.37.86-.77,1.3-1.14s1.05-.89,1.57-1.35a1,1,0,0,0,.46-.85c0-1.33,0-2.66,0-4v-.43h2.63a.55.55,0,0,0,.57-.56c0-.44-.26-.65-.81-.66h-2.39v-1.29h-.57c-.52,0-.72-.21-.72-.73,0-.81,0-1.62,0-2.44A.72.72,0,0,1,106,128.87Zm-1.77,15.51a.75.75,0,0,0,.21.08H138c0-.09,0-.17-.05-.2l-2-1.79-3.22-2.84-1.52-1.36-3.08-2.71c-.55-.48-1.08-1-1.62-1.47-1.21-1.07-2.42-2.15-3.66-3.19a2.47,2.47,0,0,0-3.26-.13c-.71.52-1.33,1.15-2,1.73l-1.54,1.39-3.22,2.84-1.52,1.36-3.11,2.73c-.55.48-1.08,1-1.62,1.47Zm7.17,10.46c1.29,0,2.59,0,3.88,0a.59.59,0,0,0,.61-.45.49.49,0,0,0-.31-.65c-.32-.1-.29-.29-.29-.52q0-2.63,0-5.25c0-.57-.26-.83-.82-.83-2,0-4,0-6,0-.63,0-.94.31-.94,1,0,1.73,0,3.45,0,5.18,0,.2,0,.36-.26.45a.51.51,0,0,0-.33.68.59.59,0,0,0,.62.44C108.87,154.83,110.15,154.84,111.43,154.84Zm19.49,0c1.29,0,2.59,0,3.88,0a.58.58,0,0,0,.62-.44.51.51,0,0,0-.33-.67c-.28-.09-.26-.25-.26-.46,0-1.74,0-3.48,0-5.22a.81.81,0,0,0-.9-.92q-3,0-6,0a.81.81,0,0,0-.9.92c0,1.74,0,3.48,0,5.22,0,.2,0,.36-.26.46a.51.51,0,0,0-.34.67.58.58,0,0,0,.61.45C128.36,154.83,129.64,154.84,130.92,154.84Z"/><path id="_Compound_Path_4" data-name="&lt;Compound Path&gt;" class="cls-2" d="M117.92,167.94q0-6.32,0-12.64a3.35,3.35,0,0,1,2.7-3,3.26,3.26,0,0,1,2.48.56,3.07,3.07,0,0,1,1.37,2.54q0,6.26,0,12.53Zm1.68-9.1v0h-.38a.55.55,0,0,0-.58.52.52.52,0,0,0,.32.57,1.37,1.37,0,0,0,1.19,0,.58.58,0,0,0,.1-1A1.74,1.74,0,0,0,119.6,158.84Z"/><path id="_Compound_Path_5" data-name="&lt;Compound Path&gt;" class="cls-2" d="M127.06,167.94a1.76,1.76,0,0,1-.67-1.46,3.9,3.9,0,0,1,2.9-4.32.52.52,0,0,0,.45-.45,3.93,3.93,0,0,1,3.64-2.93,4.15,4.15,0,0,1,2.83,1,3.71,3.71,0,0,1,1.2,2.07.35.35,0,0,0,.31.3,3.76,3.76,0,0,1,2.93,2.94s0,0,.06,0v1.6c-.16.45-.22.95-.69,1.22Zm8.38-5.32a1.4,1.4,0,0,0-.71-.85,2.23,2.23,0,0,0-2.95.59.65.65,0,0,0-.08.57.67.67,0,0,0,.5.34,1.3,1.3,0,0,0,.66-.35,1,1,0,0,1,1.49.13.54.54,0,0,0,.65.22A.58.58,0,0,0,135.44,162.61Z"/><path id="_Compound_Path_6" data-name="&lt;Compound Path&gt;" class="cls-2" d="M101.7,165.12a5.75,5.75,0,0,1,.85-1.66,3.72,3.72,0,0,1,2-1.29c.27-.07.43-.14.5-.43a3.74,3.74,0,0,1,2.26-2.65,4.05,4.05,0,0,1,4.16.67,4,4,0,0,1,1.22,2.06c0,.22.2.29.39.33a3.83,3.83,0,0,1,2.94,3.76,5.61,5.61,0,0,1-.18,1.29,2.92,2.92,0,0,1-.5.74H102.38a2.06,2.06,0,0,1-.37-.39,6.58,6.58,0,0,1-.31-.76Zm7.16-3.74a8.84,8.84,0,0,0-1.1.39,2.06,2.06,0,0,0-.64.55.56.56,0,0,0,.07.86.65.65,0,0,0,.9-.15,1,1,0,0,1,1.56,0,.64.64,0,0,0,.84.16.55.55,0,0,0,.18-.79A2.18,2.18,0,0,0,108.85,161.38Z"/><path id="_Path_13" data-name="&lt;Path&gt;" class="cls-2" d="M120.66,128.87a4.94,4.94,0,0,0-.9.27,7.59,7.59,0,0,0-1.38.85c-.84.7-1.62,1.47-2.44,2.19s-1.63,1.42-2.47,2.15v-1.51h.63a.58.58,0,0,0,.63-.64c0-.8,0-1.6,0-2.4a.9.9,0,0,0-.46-.92Z"/><path id="_Path_14" data-name="&lt;Path&gt;" class="cls-2" d="M112.06,151h2v2.63H108.8V151h2c0,.19,0,.38,0,.56,0,.45.22.7.6.7s.62-.25.62-.72C112.06,151.35,112.06,151.18,112.06,151Z"/><path id="_Path_15" data-name="&lt;Path&gt;" class="cls-2" d="M108.8,149.71v-1.32h5.28v1.32Z"/><path id="_Path_16" data-name="&lt;Path&gt;" class="cls-2" d="M128.3,153.59V151h2c.08.36.31.69.68.63s.47-.36.8-.65h1.8v2.63Z"/><path id="_Path_17" data-name="&lt;Path&gt;" class="cls-2" d="M128.3,149.71v-1.32h5.29v1.32Z"/></g><path id="_Compound_Path_7" data-name="&lt;Compound Path&gt;" class="cls-2" d="M141,166.68a.59.59,0,0,1,.56-.28c.56,0,1.12,0,1.72,0,0-.41,0-.81,0-1.2a.63.63,0,0,1,.49-.64,1,1,0,0,0,.72-.58,4.89,4.89,0,0,0,.53-1.69,10.27,10.27,0,0,0,.1-1.06.39.39,0,0,0-.16-.29,3.22,3.22,0,0,1-1.63-2.38c0-.28-.14-.56.09-.78a.59.59,0,0,1,.36-.17c.74,0,1.48,0,2.27,0v-.29c0-.82,0-1.63,0-2.45a1.81,1.81,0,0,0-2.57-1.68,1.79,1.79,0,0,0-1.07,1.63c0,.35-.16.48-.48.51a.47.47,0,0,1-.5-.53,2.76,2.76,0,0,1,2.11-2.68,2.7,2.7,0,0,1,2.73.79l.24.27c.32-.26.59-.52.89-.73a2.52,2.52,0,0,1,1.19-.4,2.72,2.72,0,0,1,2.32.83,2.76,2.76,0,0,1,.79,1.93.48.48,0,0,1-.47.51c-.34,0-.47-.14-.51-.48a1.83,1.83,0,0,0-1.43-1.77,1.77,1.77,0,0,0-2.2,1.57c-.05,1,0,2,0,3h2.14c.51,0,.66.23.6.75a3.59,3.59,0,0,1-.44,1.41,3.5,3.5,0,0,1-1.21,1.19c-.07,0-.16.14-.15.21a5.54,5.54,0,0,0,.75,3,.77.77,0,0,0,.63.39.5.5,0,0,1,.45.56c0,.42,0,.83,0,1.27h3.34a2.83,2.83,0,0,1,2.14-4.62,3.33,3.33,0,0,1,.6-1.84,3.21,3.21,0,0,1,2.86-1.4,3.3,3.3,0,0,1,2.27,1.09.39.39,0,0,0,.58.09c.45-.26.58.27,1-.44-.56-1.28-.29-2.28-.85-3.56-.37-.09-.74-.17-1.09-.29a5.85,5.85,0,0,1-2.81-2.1,5.72,5.72,0,0,1-1.16-3.12,6,6,0,0,1,1.35-4.31A6.31,6.31,0,0,1,162,143.7h1.54a6.56,6.56,0,0,1,3.12,1.37,5.85,5.85,0,0,1,1.79,2.51c.16.43.25.88.38,1.32v1.67c-.09.34-.15.68-.26,1a5.93,5.93,0,0,1-1.75,2.69,5.74,5.74,0,0,1-2.11,1.21c-.46.14-.94.23-1.42.34v3.66a3.15,3.15,0,0,1,1.51.8,3.29,3.29,0,0,1,.79,1.5h.54A2.58,2.58,0,0,1,168.4,163c.32.46.68,1.39,1,1.82l-1.09,1.52.52.35v.71H141Zm19-.83-1.51-1.52c-.23-.23-.42-.24-.64,0s-.19.4,0,.63c.45.46.9.91,1.37,1.36a.49.49,0,0,0,.3.12q.91,0,1.82,0a.49.49,0,0,0,.3-.13c.46-.44.9-.89,1.35-1.34.24-.24.25-.44,0-.65s-.4-.19-.64,0l-1.35,1.34-.2.17c0-.11,0-.16,0-.21,0-.66,0-1.32,0-2a.41.41,0,0,0-.36-.43.35.35,0,0,0-.42.24,1.21,1.21,0,0,0-.09.36C160.06,164.47,160.06,165.12,160.06,165.85Z"/><g id="_Group_5" data-name="&lt;Group&gt;"><path id="_Path_18" data-name="&lt;Path&gt;" class="cls-2" d="M247.89,167.53a1,1,0,0,1-.47-1q0-7.48,0-15v-.55c-.76-.18-1.51-.34-2.24-.54a9.17,9.17,0,0,1-3.27-1.69,9.92,9.92,0,0,1-3-3.83,10.58,10.58,0,0,1,.06-8.75,10.42,10.42,0,0,1,3.17-3.83,9.74,9.74,0,0,1,4.76-1.93,10.11,10.11,0,0,1,6.55,1.31,10.32,10.32,0,0,1,4.08,4.38,8.75,8.75,0,0,1,.9,3s.05.06.08.09v2.86s-.08.06-.08.09a8.94,8.94,0,0,1-1.05,3.29,10,10,0,0,1-5.7,4.92c-.83.29-1.71.43-2.59.65v.53q0,7.4,0,14.81a1.38,1.38,0,0,1-.37,1.12Z"/></g><path id="_Compound_Path_8" data-name="&lt;Compound Path&gt;" class="cls-2" d="M251.25,161.82a2,2,0,0,1,1-1.13c.07,0,.11-.19.11-.29,0-1.12,0-2.24,0-3.36a1,1,0,0,1,1.05-1.06H257a1.08,1.08,0,0,1,1.13,1.15c0,1,0,2.06,0,3.09,0,.32.05.53.38.62.06,0,.11.08.15.11h0c.5-.17.54-.55.52-1,0-.94,0-1.88,0-2.82a1.06,1.06,0,0,1,1.11-1.13H264a1,1,0,0,1,1,1q0,1.68,0,3.36c0,.16,0,.31.18.37s.34.3.61.08a.6.6,0,0,0,.29-.55c0-1,0-2,0-3a1.18,1.18,0,0,1,1.31-1.32c1.09,0,2.19,0,3.29,0a1.14,1.14,0,0,1,1.24,1.26c0,1.05,0,2.1,0,3.15a.37.37,0,0,0,.22.38,1.69,1.69,0,0,1,.91,1.64,1.77,1.77,0,0,1-1.13,1.55c0,.93,0,1.87,0,2.8a.81.81,0,0,1-.34.7H271a.89.89,0,0,1-.27-.8c0-.41,0-.83,0-1.24v-1.36h-3.42c0,.88,0,1.74,0,2.6a.92.92,0,0,1-.27.8h-.6a.83.83,0,0,1-.33-.74c0-.93,0-1.85,0-2.77a.89.89,0,0,1-.24-.13c-.24-.26-.43,0-.64,0s-.19.24-.19.41c0,.79,0,1.59,0,2.38a.92.92,0,0,1-.27.8h-.6a.81.81,0,0,1-.34-.7c0-.55,0-1.1,0-1.64,0-.35,0-.71,0-1.05h-3.36c0,.92,0,1.81,0,2.71a.73.73,0,0,1-.34.69h-.6a1,1,0,0,1-.27-.81c0-.68,0-1.37,0-2,0-.49-.1-.81-.61-.94,0,0-.09.12-.15.13-.36.08-.34.34-.33.62,0,.78,0,1.57,0,2.35a.73.73,0,0,1-.34.69h-.6a1,1,0,0,1-.27-.81c0-.64,0-1.27,0-1.91v-.68H253.6c0,.92,0,1.81,0,2.7a.82.82,0,0,1-.34.7h-.6a.91.91,0,0,1-.27-.8c0-.81,0-1.62,0-2.43a.41.41,0,0,0-.15-.32,2.11,2.11,0,0,1-1-1.08Zm17.75,1h2.25a.62.62,0,0,0,.6-.54.61.61,0,0,0-.58-.53h-4.53a.61.61,0,0,0-.58.53.62.62,0,0,0,.6.54Zm-6.91,0h2.21c.42,0,.64-.19.64-.54s-.24-.53-.62-.53h-4.39a.62.62,0,0,0-.62.57c0,.31.23.51.61.51Zm-6.8,0h2.21a.54.54,0,0,0,.6-.53.62.62,0,0,0-.6-.55h-4.43a.54.54,0,0,0-.61.58c0,.31.22.49.61.49Z"/><path id="_Path_19" data-name="&lt;Path&gt;" class="cls-2" d="M25.45,100.23a.6.6,0,0,1,.28.61.59.59,0,0,1-.63.44,2.51,2.51,0,0,0-2.35,2c0,.17,0,.35-.06.51-.08.34-.29.53-.55.5a.55.55,0,0,1-.51-.59,2,2,0,0,0-2-1.94c-.29,0-.45-.2-.45-.52a.47.47,0,0,1,.51-.53,2.76,2.76,0,0,1,1.61.46,10.33,10.33,0,0,1,.87.71c.17-.19.37-.43.59-.66a3.06,3.06,0,0,1,1.72-.93s0,0,.06-.05Z"/><path id="_Path_20" data-name="&lt;Path&gt;" class="cls-2" d="M156.35,70.4a.52.52,0,0,1,.24.53.51.51,0,0,1-.54.38A2.17,2.17,0,0,0,154,73c0,.15,0,.3-.06.44-.07.3-.25.46-.47.43a.48.48,0,0,1-.44-.51,1.74,1.74,0,0,0-1.75-1.68c-.25,0-.39-.17-.39-.45a.41.41,0,0,1,.44-.46,2.39,2.39,0,0,1,1.4.4,8.93,8.93,0,0,1,.75.62l.51-.57a2.65,2.65,0,0,1,1.49-.81s0,0,.05,0Z"/><path id="_Path_21" data-name="&lt;Path&gt;" class="cls-2" d="M144.73,99.82a.72.72,0,0,1,.33.74.71.71,0,0,1-.76.53,3,3,0,0,0-2.82,2.39c0,.2,0,.42-.08.62-.09.41-.35.63-.66.6a.66.66,0,0,1-.61-.71,2.41,2.41,0,0,0-2.43-2.33c-.35,0-.54-.24-.54-.63a.56.56,0,0,1,.61-.64,3.31,3.31,0,0,1,1.94.55,12.39,12.39,0,0,1,1,.85c.2-.23.45-.51.7-.79a3.67,3.67,0,0,1,2.06-1.12s0,0,.07-.06Z"/><path id="_Path_22" data-name="&lt;Path&gt;" class="cls-2" d="M90.85,56.53a.53.53,0,0,1,.24.54.52.52,0,0,1-.55.39,2.2,2.2,0,0,0-2.06,1.75c0,.15,0,.3-.06.45-.07.3-.25.46-.48.44a.48.48,0,0,1-.45-.52,1.76,1.76,0,0,0-1.78-1.7c-.26,0-.4-.17-.4-.46a.41.41,0,0,1,.45-.47,2.42,2.42,0,0,1,1.41.4A9,9,0,0,1,88,58l.51-.58A2.68,2.68,0,0,1,90,56.57s0,0,.05,0Z"/><path id="_Path_23" data-name="&lt;Path&gt;" class="cls-2" d="M9.39,167.2a.87.87,0,0,1-.4-.81q0-6.34,0-12.68v-.46c-.65-.15-1.28-.29-1.9-.46a7.77,7.77,0,0,1-2.77-1.43,8.41,8.41,0,0,1-2.55-3.24,9,9,0,0,1,.05-7.42,8.83,8.83,0,0,1,2.69-3.24,8.25,8.25,0,0,1,4-1.63,8.56,8.56,0,0,1,5.55,1.11,8.75,8.75,0,0,1,3.46,3.71,7.41,7.41,0,0,1,.77,2.51s0,0,0,0c0,.81,0,1.78,0,2.59,0,0,0,0,0,0a7.57,7.57,0,0,1-.89,2.79,8.43,8.43,0,0,1-4.83,4.17c-.7.25-1.45.37-2.2.55v.45q0,6.27,0,12.55a1.17,1.17,0,0,1-.32.95Z"/><rect id="_Rectangle_" data-name="&lt;Rectangle&gt;" class="cls-2" y="166.43" width="279.04" height="1.64"/><path id="_Path_24" data-name="&lt;Path&gt;" class="cls-2" d="M178.51,164.69A6.67,6.67,0,0,1,185,160a2.39,2.39,0,0,0,2.33-2.14,7.36,7.36,0,0,0,0-1,4.55,4.55,0,0,1,1.15-3.16,5.71,5.71,0,0,1,7.4-1.41,6.39,6.39,0,0,1,3.31,4.69c.34,2.1,1.93,2.05,3.11,1.7a4.62,4.62,0,0,0,1.84-1.11c.84-.8,2.63-2.16,4.62-1.58,0,0-3.94,4-1.87,8.72Z"/><path id="_Path_25" data-name="&lt;Path&gt;" class="cls-2" d="M212.19,164.73s-1.37-5.44,2.56-7.16,6.19,3,6.19,3,1.94,3.37,4.88,0a6.91,6.91,0,0,1,5.15-3,4.76,4.76,0,0,1,3.48,1.15,7.72,7.72,0,0,1,2.37,6.1S214.56,167.23,212.19,164.73Z"/><g id="_Group_6" data-name="&lt;Group&gt;"><path id="_Path_26" data-name="&lt;Path&gt;" class="cls-3" d="M3.84,141A6.5,6.5,0,0,1,10,137.19s.48.15.35.56a.62.62,0,0,1-.54.44s-2.54-.79-5.25,3.19c0,0-.1.44-.63.21S3.84,141,3.84,141Z"/><circle id="_Path_27" data-name="&lt;Path&gt;" class="cls-3" cx="3.57" cy="142.76" r="0.56"/></g><g id="_Group_7" data-name="&lt;Group&gt;"><path id="_Path_28" data-name="&lt;Path&gt;" class="cls-3" d="M255.32,136.29a6.5,6.5,0,0,0-6.19-3.85s-.48.15-.35.56a.62.62,0,0,0,.54.44s2.54-.79,5.25,3.19c0,0,.1.44.63.21S255.32,136.29,255.32,136.29Z"/><circle id="_Path_29" data-name="&lt;Path&gt;" class="cls-3" cx="255.59" cy="138" r="0.56"/></g><g id="_Group_8" data-name="&lt;Group&gt;" class="cls-4"><path id="_Path_30" data-name="&lt;Path&gt;" class="cls-3" d="M167.08,147.84a4.85,4.85,0,0,0-4.62-2.88s-.36.11-.26.42a.46.46,0,0,0,.4.33s1.9-.59,3.92,2.38c0,0,.08.33.47.16S167.08,147.84,167.08,147.84Z"/><circle id="_Path_31" data-name="&lt;Path&gt;" class="cls-3" cx="167.28" cy="149.12" r="0.42"/></g><g id="_Group_9" data-name="&lt;Group&gt;"><path id="_Path_32" data-name="&lt;Path&gt;" class="cls-2" d="M110.38,79.34a3.92,3.92,0,0,1,1.16-2,4.82,4.82,0,0,1,1.45-.82,1.52,1.52,0,0,0,.8-.6,5.64,5.64,0,0,1,5.2-2.28,4.2,4.2,0,0,1,3.71,3.4c.1.38.15.77.23,1.19a2.62,2.62,0,0,1,2,1.75,2.93,2.93,0,0,1-.34,2.86A2.45,2.45,0,0,1,122.51,84c-2.93,0-5.86,0-8.79,0a3.49,3.49,0,0,1-3.08-2.25c-.08-.23-.17-.46-.25-.69Z"/><g id="_Group_10" data-name="&lt;Group&gt;" class="cls-4"><path id="_Path_33" data-name="&lt;Path&gt;" class="cls-3" d="M121.06,77.28a4,4,0,0,0-3.81-2.37s-.29.09-.22.35a.38.38,0,0,0,.33.27s1.56-.49,3.23,2c0,0,.06.27.38.13S121.06,77.28,121.06,77.28Z"/><circle id="_Path_34" data-name="&lt;Path&gt;" class="cls-3" cx="121.23" cy="78.33" r="0.35"/></g></g><g id="_Group_11" data-name="&lt;Group&gt;"><path id="_Path_35" data-name="&lt;Path&gt;" class="cls-2" d="M230.12,80.26a3.5,3.5,0,0,1,1-1.75,4.3,4.3,0,0,1,1.29-.73,1.36,1.36,0,0,0,.72-.54,5,5,0,0,1,4.65-2,3.75,3.75,0,0,1,3.31,3c.09.34.13.69.2,1.06a2.34,2.34,0,0,1,1.79,1.56,2.62,2.62,0,0,1-.3,2.56,2.19,2.19,0,0,1-1.86,1c-2.62,0-5.23,0-7.85,0a3.11,3.11,0,0,1-2.75-2c-.07-.21-.15-.41-.23-.62Z"/><g id="_Group_12" data-name="&lt;Group&gt;" class="cls-5"><path id="_Path_36" data-name="&lt;Path&gt;" class="cls-3" d="M234.18,78.18a3.31,3.31,0,0,1,3.15-2s.24.07.18.29a.32.32,0,0,1-.28.22s-1.29-.4-2.67,1.62c0,0-.05.22-.32.11S234.18,78.18,234.18,78.18Z"/><circle id="_Path_37" data-name="&lt;Path&gt;" class="cls-3" cx="234.05" cy="79.05" r="0.29"/></g></g><path id="_Compound_Path_9" data-name="&lt;Compound Path&gt;" class="cls-2" d="M41.37,57.57q0-1.14,0-2.29a.48.48,0,0,0,.07-.15,10.07,10.07,0,0,1,1.07-3.78,8.89,8.89,0,0,1,2.68-3.23,9.73,9.73,0,0,1,5.61-2,10.54,10.54,0,0,1,2.16.22,9.07,9.07,0,0,1,5.64,3.34A10.47,10.47,0,0,1,60.81,56a14.35,14.35,0,0,1-.14,2.22A8.67,8.67,0,0,1,59.32,62c-.71,1.1-1.48,2.16-2.22,3.23l-4.9,7.1-1.09,1.58a2.84,2.84,0,0,1-.26-.28L45.49,65.9c-.67-1-1.32-1.93-2-2.88a10.2,10.2,0,0,1-1.9-4.25C41.53,58.37,41.45,58,41.37,57.57Zm13.27-1.8a3.48,3.48,0,0,0-3.32-3.47,3.5,3.5,0,1,0-.14,7A3.47,3.47,0,0,0,54.64,55.77Z"/><path id="_Compound_Path_10" data-name="&lt;Compound Path&gt;" class="cls-2" d="M194.69,53.09q0-1.5,0-3a.63.63,0,0,0,.1-.2,13.2,13.2,0,0,1,1.41-5,11.65,11.65,0,0,1,3.52-4.23,12.75,12.75,0,0,1,7.36-2.58,13.81,13.81,0,0,1,2.83.28,11.89,11.89,0,0,1,7.39,4.38A13.71,13.71,0,0,1,220.16,51a18.8,18.8,0,0,1-.19,2.91,11.36,11.36,0,0,1-1.76,5c-.93,1.44-1.94,2.82-2.91,4.23l-6.42,9.3-1.43,2.07a3.72,3.72,0,0,1-.34-.37l-7-10.14c-.87-1.26-1.73-2.53-2.62-3.78A13.36,13.36,0,0,1,195,54.64C194.9,54.12,194.79,53.61,194.69,53.09Zm17.39-2.36a4.57,4.57,0,0,0-4.35-4.54,4.59,4.59,0,1,0-.19,9.17A4.55,4.55,0,0,0,212.08,50.73Z"/><path id="_Path_38" data-name="&lt;Path&gt;" class="cls-6" d="M55.91,60.28s74.35-65.66,151.52,0"/><path id="_Path_39" data-name="&lt;Path&gt;" class="cls-2" d="M105.38,144.47l14.55-12.31a2,2,0,0,1,2.53,0l14.36,12.3Z"/></g><path id="_Path_40" data-name="&lt;Path&gt;" class="cls-2" d="M0,181.22l7-4a6.32,6.32,0,0,1,6.66.22l2.6,1.73a6.32,6.32,0,0,0,6.47.32l4.08-2.16a6.32,6.32,0,0,1,7.18.88h0a6.32,6.32,0,0,0,7.37.77l2.87-1.65a6.32,6.32,0,0,1,6.92.4l1.41,1a6.32,6.32,0,0,0,7,.38l3.38-2a6.32,6.32,0,0,1,6.54.1l3,1.86a6.32,6.32,0,0,0,6.71,0l2.81-1.76a6.32,6.32,0,0,1,6.78,0l5.92,3.82"/><path id="_Path_41" data-name="&lt;Path&gt;" class="cls-2" d="M114.14,197.13l7-4a6.32,6.32,0,0,1,6.66.22l2.6,1.73a6.32,6.32,0,0,0,6.47.32l4.08-2.16a6.32,6.32,0,0,1,7.18.88h0a6.32,6.32,0,0,0,7.37.77l2.87-1.65a6.32,6.32,0,0,1,6.92.4l1.41,1a6.32,6.32,0,0,0,7,.38l3.38-2a6.32,6.32,0,0,1,6.54.1l3,1.86a6.32,6.32,0,0,0,6.71,0l2.81-1.76a6.32,6.32,0,0,1,6.78,0l5.92,3.82"/><path id="_Path_42" data-name="&lt;Path&gt;" class="cls-2" d="M93.81,181.22l7-4a6.32,6.32,0,0,1,6.66.22l2.6,1.73a6.32,6.32,0,0,0,6.47.32l4.08-2.16a6.32,6.32,0,0,1,7.18.88h0a6.32,6.32,0,0,0,7.37.77l2.87-1.65a6.32,6.32,0,0,1,6.92.4l1.41,1a6.32,6.32,0,0,0,7,.38l3.38-2a6.32,6.32,0,0,1,6.54.1l3,1.86a6.32,6.32,0,0,0,6.71,0l2.81-1.76a6.32,6.32,0,0,1,6.78,0l5.92,3.82"/><path id="_Path_43" data-name="&lt;Path&gt;" class="cls-2" d="M183.52,211.32l7-4a6.32,6.32,0,0,1,6.66.22l2.6,1.73a6.32,6.32,0,0,0,6.47.32l4.08-2.16a6.32,6.32,0,0,1,7.18.88h0a6.32,6.32,0,0,0,7.37.77l2.87-1.65a6.32,6.32,0,0,1,6.92.4l1.41,1a6.32,6.32,0,0,0,7,.38l3.38-2a6.32,6.32,0,0,1,6.54.1l3,1.86a6.32,6.32,0,0,0,6.71,0l2.81-1.76a6.32,6.32,0,0,1,6.78,0l5.92,3.82"/></g></svg>